# Blender 5.0.1
# www.blender.org
mtllib translate_gizmo.mtl
o Translate_X
v 0.000000 0.000000 -0.040000
v 1.000000 -0.000000 -0.040000
v 0.000000 -0.007804 -0.039231
v 1.000000 -0.007804 -0.039231
v 0.000000 -0.015307 -0.036955
v 1.000000 -0.015307 -0.036955
v 0.000000 -0.022223 -0.033259
v 1.000000 -0.022223 -0.033259
v 0.000000 -0.028284 -0.028284
v 1.000000 -0.028284 -0.028284
v 0.000000 -0.033259 -0.022223
v 1.000000 -0.033259 -0.022223
v 0.000000 -0.036955 -0.015307
v 1.000000 -0.036955 -0.015307
v 0.000000 -0.039231 -0.007804
v 1.000000 -0.039231 -0.007804
v 0.000000 -0.040000 0.000000
v 1.000000 -0.040000 0.000000
v 0.000000 -0.039231 0.007804
v 1.000000 -0.039231 0.007804
v 0.000000 -0.036955 0.015307
v 1.000000 -0.036955 0.015307
v 0.000000 -0.033259 0.022223
v 1.000000 -0.033259 0.022223
v 0.000000 -0.028284 0.028284
v 1.000000 -0.028284 0.028284
v 0.000000 -0.022223 0.033259
v 1.000000 -0.022223 0.033259
v 0.000000 -0.015307 0.036955
v 1.000000 -0.015307 0.036955
v 0.000000 -0.007804 0.039231
v 1.000000 -0.007804 0.039231
v 0.000000 0.000000 0.040000
v 1.000000 -0.000000 0.040000
v 0.000000 0.007804 0.039231
v 1.000000 0.007804 0.039231
v 0.000000 0.015307 0.036955
v 1.000000 0.015307 0.036955
v 0.000000 0.022223 0.033259
v 1.000000 0.022223 0.033259
v 0.000000 0.028284 0.028284
v 1.000000 0.028284 0.028284
v 0.000000 0.033259 0.022223
v 1.000000 0.033259 0.022223
v 0.000000 0.036955 0.015307
v 1.000000 0.036955 0.015307
v 0.000000 0.039231 0.007804
v 1.000000 0.039231 0.007804
v 0.000000 0.040000 0.000000
v 1.000000 0.040000 0.000000
v 0.000000 0.039231 -0.007804
v 1.000000 0.039231 -0.007804
v 0.000000 0.036955 -0.015307
v 1.000000 0.036955 -0.015307
v 0.000000 0.033259 -0.022223
v 1.000000 0.033259 -0.022223
v 0.000000 0.028284 -0.028284
v 1.000000 0.028284 -0.028284
v 0.000000 0.022223 -0.033259
v 1.000000 0.022223 -0.033259
v 0.000000 0.015307 -0.036955
v 1.000000 0.015307 -0.036955
v 0.000000 0.007804 -0.039231
v 1.000000 0.007804 -0.039231
v 1.000000 -0.000000 -0.120000
v 1.000000 -0.023411 -0.117694
v 1.000000 -0.045922 -0.110866
v 1.000000 -0.066668 -0.099776
v 1.000000 -0.084853 -0.084853
v 1.000000 -0.099776 -0.066668
v 1.000000 -0.110866 -0.045922
v 1.000000 -0.117694 -0.023411
v 1.000000 -0.120000 0.000000
v 1.000000 -0.117694 0.023411
v 1.000000 -0.110866 0.045922
v 1.000000 -0.099776 0.066668
v 1.000000 -0.084853 0.084853
v 1.000000 -0.066668 0.099776
v 1.000000 -0.045922 0.110866
v 1.000000 -0.023411 0.117694
v 1.000000 -0.000000 0.120000
v 1.000000 0.023411 0.117694
v 1.000000 0.045922 0.110866
v 1.000000 0.066668 0.099776
v 1.000000 0.084853 0.084853
v 1.000000 0.099776 0.066668
v 1.000000 0.110866 0.045922
v 1.000000 0.117694 0.023411
v 1.000000 0.120000 0.000000
v 1.000000 0.117694 -0.023411
v 1.000000 0.110866 -0.045922
v 1.000000 0.099776 -0.066668
v 1.000000 0.084853 -0.084853
v 1.000000 0.066668 -0.099776
v 1.000000 0.045922 -0.110866
v 1.000000 0.023411 -0.117694
v 1.250000 -0.000000 0.000000
vn -0.0000 -0.0980 -0.9952
vn -0.0000 -0.2903 -0.9569
vn -0.0000 -0.4714 -0.8819
vn -0.0000 -0.6344 -0.7730
vn -0.0000 -0.7730 -0.6344
vn -0.0000 -0.8819 -0.4714
vn -0.0000 -0.9569 -0.2903
vn -0.0000 -0.9952 -0.0980
vn -0.0000 -0.9952 0.0980
vn -0.0000 -0.9569 0.2903
vn -0.0000 -0.8819 0.4714
vn -0.0000 -0.7730 0.6344
vn -0.0000 -0.6344 0.7730
vn -0.0000 -0.4714 0.8819
vn -0.0000 -0.2903 0.9569
vn -0.0000 -0.0980 0.9952
vn -0.0000 0.0980 0.9952
vn -0.0000 0.2903 0.9569
vn -0.0000 0.4714 0.8819
vn -0.0000 0.6344 0.7730
vn -0.0000 0.7730 0.6344
vn -0.0000 0.8819 0.4714
vn -0.0000 0.9569 0.2903
vn -0.0000 0.9952 0.0980
vn -0.0000 0.9952 -0.0980
vn -0.0000 0.9569 -0.2903
vn -0.0000 0.8819 -0.4714
vn -0.0000 0.7730 -0.6344
vn -0.0000 0.6344 -0.7730
vn -0.0000 0.4714 -0.8819
vn 1.0000 -0.0000 -0.0000
vn -0.0000 0.2903 -0.9569
vn -0.0000 0.0980 -0.9952
vn -1.0000 -0.0000 -0.0000
vn 0.4310 -0.0884 -0.8980
vn 0.4310 -0.2619 -0.8635
vn 0.4310 -0.4254 -0.7958
vn 0.4310 -0.5724 -0.6975
vn 0.4310 -0.6975 -0.5724
vn 0.4310 -0.7958 -0.4254
vn 0.4310 -0.8635 -0.2619
vn 0.4310 -0.8980 -0.0884
vn 0.4310 -0.8980 0.0884
vn 0.4310 -0.8635 0.2619
vn 0.4310 -0.7958 0.4254
vn 0.4310 -0.6975 0.5724
vn 0.4310 -0.5724 0.6975
vn 0.4310 -0.4254 0.7958
vn 0.4310 -0.2619 0.8635
vn 0.4310 -0.0884 0.8980
vn 0.4310 0.0884 0.8980
vn 0.4310 0.2619 0.8635
vn 0.4310 0.4254 0.7958
vn 0.4310 0.5724 0.6975
vn 0.4310 0.6975 0.5724
vn 0.4310 0.7958 0.4254
vn 0.4310 0.8635 0.2619
vn 0.4310 0.8980 0.0884
vn 0.4310 0.8980 -0.0884
vn 0.4310 0.8635 -0.2619
vn 0.4310 0.7958 -0.4254
vn 0.4310 0.6975 -0.5724
vn 0.4310 0.5724 -0.6975
vn 0.4310 0.4254 -0.7958
vn 0.4310 0.2619 -0.8635
vn 0.4310 0.0884 -0.8980
vt 1.000000 1.000000
vt 0.968750 0.500000
vt 1.000000 0.500000
vt 0.968750 1.000000
vt 0.937500 0.500000
vt 0.937500 1.000000
vt 0.906250 0.500000
vt 0.906250 1.000000
vt 0.875000 0.500000
vt 0.875000 1.000000
vt 0.843750 0.500000
vt 0.843750 1.000000
vt 0.812500 0.500000
vt 0.812500 1.000000
vt 0.781250 0.500000
vt 0.781250 1.000000
vt 0.750000 0.500000
vt 0.750000 1.000000
vt 0.718750 0.500000
vt 0.718750 1.000000
vt 0.687500 0.500000
vt 0.687500 1.000000
vt 0.656250 0.500000
vt 0.656250 1.000000
vt 0.625000 0.500000
vt 0.625000 1.000000
vt 0.593750 0.500000
vt 0.593750 1.000000
vt 0.562500 0.500000
vt 0.562500 1.000000
vt 0.531250 0.500000
vt 0.531250 1.000000
vt 0.500000 0.500000
vt 0.500000 1.000000
vt 0.468750 0.500000
vt 0.468750 1.000000
vt 0.437500 0.500000
vt 0.437500 1.000000
vt 0.406250 0.500000
vt 0.406250 1.000000
vt 0.375000 0.500000
vt 0.375000 1.000000
vt 0.343750 0.500000
vt 0.343750 1.000000
vt 0.312500 0.500000
vt 0.312500 1.000000
vt 0.281250 0.500000
vt 0.281250 1.000000
vt 0.250000 0.500000
vt 0.250000 1.000000
vt 0.218750 0.500000
vt 0.218750 1.000000
vt 0.187500 0.500000
vt 0.187500 1.000000
vt 0.156250 0.500000
vt 0.156250 1.000000
vt 0.125000 0.500000
vt 0.125000 1.000000
vt 0.093750 0.500000
vt 0.093750 1.000000
vt 0.062500 0.500000
vt 0.158156 0.028269
vt 0.471731 0.158156
vt 0.341844 0.471731
vt 0.062500 1.000000
vt 0.031250 0.500000
vt 0.031250 1.000000
vt 0.000000 0.500000
vt 0.796822 0.014612
vt 0.514612 0.203178
vt 0.703178 0.485388
vt 0.250000 0.490000
vt 0.250000 0.250000
vt 0.296822 0.485388
vt 0.383337 0.449553
vt 0.419706 0.419706
vt 0.449553 0.383337
vt 0.471731 0.341844
vt 0.485388 0.296822
vt 0.490000 0.250000
vt 0.485388 0.203178
vt 0.449553 0.116663
vt 0.419706 0.080294
vt 0.383337 0.050447
vt 0.341844 0.028269
vt 0.296822 0.014612
vt 0.250000 0.010000
vt 0.203178 0.014612
vt 0.158156 0.028269
vt 0.116663 0.050447
vt 0.080294 0.080294
vt 0.050447 0.116663
vt 0.028269 0.158156
vt 0.014612 0.203178
vt 0.010000 0.250000
vt 0.014612 0.296822
vt 0.028269 0.341844
vt 0.050447 0.383337
vt 0.080294 0.419706
vt 0.116663 0.449553
vt 0.158156 0.471731
vt 0.203178 0.485388
vt 0.080294 0.419706
vt 0.050447 0.383337
vt 0.028269 0.341844
vt 0.028269 0.158156
vt 0.050447 0.116663
vt 0.080294 0.080294
vt 0.116663 0.050447
vt 0.341844 0.028269
vt 0.383337 0.050447
vt 0.419706 0.080294
vt 0.000000 1.000000
vt 0.750000 0.490000
vt 0.796822 0.485388
vt 0.841844 0.471731
vt 0.883337 0.449553
vt 0.919706 0.419706
vt 0.949553 0.383337
vt 0.971731 0.341844
vt 0.985388 0.296822
vt 0.990000 0.250000
vt 0.985388 0.203178
vt 0.971731 0.158156
vt 0.949553 0.116663
vt 0.919706 0.080294
vt 0.883337 0.050447
vt 0.841844 0.028269
vt 0.750000 0.010000
vt 0.703178 0.014612
vt 0.658156 0.028269
vt 0.616663 0.050447
vt 0.580294 0.080294
vt 0.550447 0.116663
vt 0.528269 0.158156
vt 0.510000 0.250000
vt 0.514612 0.296822
vt 0.528269 0.341844
vt 0.550447 0.383337
vt 0.580294 0.419706
vt 0.616663 0.449553
vt 0.658156 0.471731
vt 0.919706 0.080294
vt 0.883337 0.050447
vt 0.841844 0.028269
vt 0.658156 0.028269
vt 0.616663 0.050447
vt 0.580294 0.080294
s 0
usemtl Mat_Translate_X
f 2/1/1 3/2/1 1/3/1
f 4/4/2 5/5/2 3/2/2
f 6/6/3 7/7/3 5/5/3
f 8/8/4 9/9/4 7/7/4
f 10/10/5 11/11/5 9/9/5
f 12/12/6 13/13/6 11/11/6
f 14/14/7 15/15/7 13/13/7
f 16/16/8 17/17/8 15/15/8
f 18/18/9 19/19/9 17/17/9
f 20/20/10 21/21/10 19/19/10
f 22/22/11 23/23/11 21/21/11
f 24/24/12 25/25/12 23/23/12
f 26/26/13 27/27/13 25/25/13
f 28/28/14 29/29/14 27/27/14
f 30/30/15 31/31/15 29/29/15
f 32/32/16 33/33/16 31/31/16
f 34/34/17 35/35/17 33/33/17
f 36/36/18 37/37/18 35/35/18
f 38/38/19 39/39/19 37/37/19
f 40/40/20 41/41/20 39/39/20
f 42/42/21 43/43/21 41/41/21
f 44/44/22 45/45/22 43/43/22
f 46/46/23 47/47/23 45/45/23
f 48/48/24 49/49/24 47/47/24
f 50/50/25 51/51/25 49/49/25
f 52/52/26 53/53/26 51/51/26
f 54/54/27 55/55/27 53/53/27
f 56/56/28 57/57/28 55/55/28
f 58/58/29 59/59/29 57/57/29
f 60/60/30 61/61/30 59/59/30
f 38/62/31 22/63/31 6/64/31
f 62/65/32 63/66/32 61/61/32
f 64/67/33 1/68/33 63/66/33
f 31/69/34 47/70/34 63/71/34
f 65/72/35 97/73/35 66/74/35
f 66/74/36 97/73/36 67/64/36
f 67/64/37 97/73/37 68/75/37
f 68/75/38 97/73/38 69/76/38
f 69/76/39 97/73/39 70/77/39
f 70/77/40 97/73/40 71/78/40
f 71/78/41 97/73/41 72/79/41
f 72/79/42 97/73/42 73/80/42
f 73/80/43 97/73/43 74/81/43
f 74/81/44 97/73/44 75/63/44
f 75/63/45 97/73/45 76/82/45
f 76/82/46 97/73/46 77/83/46
f 77/83/47 97/73/47 78/84/47
f 78/84/48 97/73/48 79/85/48
f 79/85/49 97/73/49 80/86/49
f 80/86/50 97/73/50 81/87/50
f 81/87/51 97/73/51 82/88/51
f 82/88/52 97/73/52 83/89/52
f 83/89/53 97/73/53 84/90/53
f 84/90/54 97/73/54 85/91/54
f 85/91/55 97/73/55 86/92/55
f 86/92/56 97/73/56 87/93/56
f 87/93/57 97/73/57 88/94/57
f 88/94/58 97/73/58 89/95/58
f 89/95/59 97/73/59 90/96/59
f 90/96/60 97/73/60 91/97/60
f 91/97/61 97/73/61 92/98/61
f 92/98/62 97/73/62 93/99/62
f 93/99/63 97/73/63 94/100/63
f 94/100/64 97/73/64 95/101/64
f 80/69/34 88/70/34 96/71/34
f 95/101/65 97/73/65 96/102/65
f 96/102/66 97/73/66 65/72/66
f 2/1/1 4/4/1 3/2/1
f 4/4/2 6/6/2 5/5/2
f 6/6/3 8/8/3 7/7/3
f 8/8/4 10/10/4 9/9/4
f 10/10/5 12/12/5 11/11/5
f 12/12/6 14/14/6 13/13/6
f 14/14/7 16/16/7 15/15/7
f 16/16/8 18/18/8 17/17/8
f 18/18/9 20/20/9 19/19/9
f 20/20/10 22/22/10 21/21/10
f 22/22/11 24/24/11 23/23/11
f 24/24/12 26/26/12 25/25/12
f 26/26/13 28/28/13 27/27/13
f 28/28/14 30/30/14 29/29/14
f 30/30/15 32/32/15 31/31/15
f 32/32/16 34/34/16 33/33/16
f 34/34/17 36/36/17 35/35/17
f 36/36/18 38/38/18 37/37/18
f 38/38/19 40/40/19 39/39/19
f 40/40/20 42/42/20 41/41/20
f 42/42/21 44/44/21 43/43/21
f 44/44/22 46/46/22 45/45/22
f 46/46/23 48/48/23 47/47/23
f 48/48/24 50/50/24 49/49/24
f 50/50/25 52/52/25 51/51/25
f 52/52/26 54/54/26 53/53/26
f 54/54/27 56/56/27 55/55/27
f 56/56/28 58/58/28 57/57/28
f 58/58/29 60/60/29 59/59/29
f 60/60/30 62/65/30 61/61/30
f 6/64/31 4/74/31 2/72/31
f 2/72/31 64/102/31 62/101/31
f 62/101/31 60/100/31 58/103/31
f 58/103/31 56/104/31 54/105/31
f 54/105/31 52/96/31 50/95/31
f 50/95/31 48/94/31 46/106/31
f 46/106/31 44/107/31 42/108/31
f 42/108/31 40/109/31 38/62/31
f 38/62/31 36/88/31 34/87/31
f 34/87/31 32/86/31 30/110/31
f 30/110/31 28/111/31 26/112/31
f 26/112/31 24/82/31 22/63/31
f 22/63/31 20/81/31 18/80/31
f 18/80/31 16/79/31 14/78/31
f 14/78/31 12/77/31 10/76/31
f 10/76/31 8/75/31 6/64/31
f 6/64/31 2/72/31 62/101/31
f 62/101/31 58/103/31 54/105/31
f 54/105/31 50/95/31 46/106/31
f 46/106/31 42/108/31 38/62/31
f 38/62/31 34/87/31 30/110/31
f 30/110/31 26/112/31 22/63/31
f 22/63/31 18/80/31 14/78/31
f 14/78/31 10/76/31 6/64/31
f 6/64/31 62/101/31 54/105/31
f 54/105/31 46/106/31 38/62/31
f 38/62/31 30/110/31 22/63/31
f 22/63/31 14/78/31 6/64/31
f 6/64/31 54/105/31 38/62/31
f 62/65/32 64/67/32 63/66/32
f 64/67/33 2/113/33 1/68/33
f 63/71/34 1/114/34 3/115/34
f 3/115/34 5/116/34 7/117/34
f 7/117/34 9/118/34 11/119/34
f 11/119/34 13/120/34 15/121/34
f 15/121/34 17/122/34 19/123/34
f 19/123/34 21/124/34 23/125/34
f 23/125/34 25/126/34 27/127/34
f 27/127/34 29/128/34 31/69/34
f 31/69/34 33/129/34 35/130/34
f 35/130/34 37/131/34 39/132/34
f 39/132/34 41/133/34 43/134/34
f 43/134/34 45/135/34 47/70/34
f 47/70/34 49/136/34 51/137/34
f 51/137/34 53/138/34 55/139/34
f 55/139/34 57/140/34 59/141/34
f 59/141/34 61/142/34 63/71/34
f 63/71/34 3/115/34 7/117/34
f 7/117/34 11/119/34 15/121/34
f 15/121/34 19/123/34 23/125/34
f 23/125/34 27/127/34 31/69/34
f 31/69/34 35/130/34 39/132/34
f 39/132/34 43/134/34 47/70/34
f 47/70/34 51/137/34 55/139/34
f 55/139/34 59/141/34 63/71/34
f 63/71/34 7/117/34 15/121/34
f 15/121/34 23/125/34 31/69/34
f 31/69/34 39/132/34 47/70/34
f 47/70/34 55/139/34 63/71/34
f 63/71/34 15/121/34 31/69/34
f 96/71/34 65/114/34 66/115/34
f 66/115/34 67/116/34 68/117/34
f 68/117/34 69/118/34 70/119/34
f 70/119/34 71/120/34 72/121/34
f 72/121/34 73/122/34 74/123/34
f 74/123/34 75/124/34 76/125/34
f 76/125/34 77/143/34 78/144/34
f 78/144/34 79/145/34 80/69/34
f 80/69/34 81/129/34 82/130/34
f 82/130/34 83/146/34 84/147/34
f 84/147/34 85/148/34 86/134/34
f 86/134/34 87/135/34 88/70/34
f 88/70/34 89/136/34 90/137/34
f 90/137/34 91/138/34 92/139/34
f 92/139/34 93/140/34 94/141/34
f 94/141/34 95/142/34 96/71/34
f 96/71/34 66/115/34 68/117/34
f 68/117/34 70/119/34 72/121/34
f 72/121/34 74/123/34 76/125/34
f 76/125/34 78/144/34 80/69/34
f 80/69/34 82/130/34 84/147/34
f 84/147/34 86/134/34 88/70/34
f 88/70/34 90/137/34 92/139/34
f 92/139/34 94/141/34 96/71/34
f 96/71/34 68/117/34 72/121/34
f 72/121/34 76/125/34 80/69/34
f 80/69/34 84/147/34 88/70/34
f 88/70/34 92/139/34 96/71/34
f 96/71/34 72/121/34 80/69/34
o Translate_Z
v 0.000000 0.040000 0.000000
v 0.000000 0.040000 1.000000
v 0.007804 0.039231 0.000000
v 0.007804 0.039231 1.000000
v 0.015307 0.036955 0.000000
v 0.015307 0.036955 1.000000
v 0.022223 0.033259 0.000000
v 0.022223 0.033259 1.000000
v 0.028284 0.028284 0.000000
v 0.028284 0.028284 1.000000
v 0.033259 0.022223 0.000000
v 0.033259 0.022223 1.000000
v 0.036955 0.015307 0.000000
v 0.036955 0.015307 1.000000
v 0.039231 0.007804 0.000000
v 0.039231 0.007804 1.000000
v 0.040000 0.000000 0.000000
v 0.040000 -0.000000 1.000000
v 0.039231 -0.007804 0.000000
v 0.039231 -0.007804 1.000000
v 0.036955 -0.015307 0.000000
v 0.036955 -0.015307 1.000000
v 0.033259 -0.022223 0.000000
v 0.033259 -0.022223 1.000000
v 0.028284 -0.028284 0.000000
v 0.028284 -0.028284 1.000000
v 0.022223 -0.033259 0.000000
v 0.022223 -0.033259 1.000000
v 0.015307 -0.036955 0.000000
v 0.015307 -0.036955 1.000000
v 0.007804 -0.039231 0.000000
v 0.007804 -0.039231 1.000000
v 0.000000 -0.040000 0.000000
v 0.000000 -0.040000 1.000000
v -0.007804 -0.039231 0.000000
v -0.007804 -0.039231 1.000000
v -0.015307 -0.036955 0.000000
v -0.015307 -0.036955 1.000000
v -0.022223 -0.033259 0.000000
v -0.022223 -0.033259 1.000000
v -0.028284 -0.028284 0.000000
v -0.028284 -0.028284 1.000000
v -0.033259 -0.022223 0.000000
v -0.033259 -0.022223 1.000000
v -0.036955 -0.015307 0.000000
v -0.036955 -0.015307 1.000000
v -0.039231 -0.007804 0.000000
v -0.039231 -0.007804 1.000000
v -0.040000 0.000000 0.000000
v -0.040000 -0.000000 1.000000
v -0.039231 0.007804 0.000000
v -0.039231 0.007804 1.000000
v -0.036955 0.015307 0.000000
v -0.036955 0.015307 1.000000
v -0.033259 0.022223 0.000000
v -0.033259 0.022223 1.000000
v -0.028284 0.028284 0.000000
v -0.028284 0.028284 1.000000
v -0.022223 0.033259 0.000000
v -0.022223 0.033259 1.000000
v -0.015307 0.036955 0.000000
v -0.015307 0.036955 1.000000
v -0.007804 0.039231 0.000000
v -0.007804 0.039231 1.000000
v 0.000000 0.120000 1.000000
v 0.023411 0.117694 1.000000
v 0.045922 0.110866 1.000000
v 0.066668 0.099776 1.000000
v 0.084853 0.084853 1.000000
v 0.099776 0.066668 1.000000
v 0.110866 0.045922 1.000000
v 0.117694 0.023411 1.000000
v 0.120000 -0.000000 1.000000
v 0.117694 -0.023411 1.000000
v 0.110866 -0.045922 1.000000
v 0.099776 -0.066668 1.000000
v 0.084853 -0.084853 1.000000
v 0.066668 -0.099776 1.000000
v 0.045922 -0.110866 1.000000
v 0.023411 -0.117694 1.000000
v 0.000000 -0.120000 1.000000
v -0.023411 -0.117694 1.000000
v -0.045922 -0.110866 1.000000
v -0.066668 -0.099776 1.000000
v -0.084853 -0.084853 1.000000
v -0.099776 -0.066668 1.000000
v -0.110866 -0.045922 1.000000
v -0.117694 -0.023411 1.000000
v -0.120000 -0.000000 1.000000
v -0.117694 0.023411 1.000000
v -0.110866 0.045922 1.000000
v -0.099776 0.066668 1.000000
v -0.084853 0.084853 1.000000
v -0.066668 0.099776 1.000000
v -0.045922 0.110866 1.000000
v -0.023411 0.117694 1.000000
v 0.000000 -0.000000 1.250000
vn 0.0980 0.9952 -0.0000
vn 0.2903 0.9569 -0.0000
vn 0.4714 0.8819 -0.0000
vn 0.6344 0.7730 -0.0000
vn 0.7730 0.6344 -0.0000
vn 0.8819 0.4714 -0.0000
vn 0.9569 0.2903 -0.0000
vn 0.9952 0.0980 -0.0000
vn 0.9952 -0.0980 -0.0000
vn 0.9569 -0.2903 -0.0000
vn 0.8819 -0.4714 -0.0000
vn 0.7730 -0.6344 -0.0000
vn 0.6344 -0.7730 -0.0000
vn 0.4714 -0.8819 -0.0000
vn 0.2903 -0.9569 -0.0000
vn 0.0980 -0.9952 -0.0000
vn -0.0980 -0.9952 -0.0000
vn -0.2903 -0.9569 -0.0000
vn -0.4714 -0.8819 -0.0000
vn -0.6344 -0.7730 -0.0000
vn -0.7730 -0.6344 -0.0000
vn -0.8819 -0.4714 -0.0000
vn -0.9569 -0.2903 -0.0000
vn -0.9952 -0.0980 -0.0000
vn -0.9952 0.0980 -0.0000
vn -0.9569 0.2903 -0.0000
vn -0.8819 0.4714 -0.0000
vn -0.7730 0.6344 -0.0000
vn -0.6344 0.7730 -0.0000
vn -0.4714 0.8819 -0.0000
vn -0.0000 -0.0000 1.0000
vn -0.2903 0.9569 -0.0000
vn -0.0980 0.9952 -0.0000
vn -0.0000 -0.0000 -1.0000
vn 0.0884 0.8980 0.4310
vn 0.2619 0.8635 0.4310
vn 0.4254 0.7958 0.4310
vn 0.5724 0.6975 0.4310
vn 0.6975 0.5724 0.4310
vn 0.7958 0.4254 0.4310
vn 0.8635 0.2619 0.4310
vn 0.8980 0.0884 0.4310
vn 0.8980 -0.0884 0.4310
vn 0.8635 -0.2619 0.4310
vn 0.7958 -0.4254 0.4310
vn 0.6975 -0.5724 0.4310
vn 0.5724 -0.6975 0.4310
vn 0.4254 -0.7958 0.4310
vn 0.2619 -0.8635 0.4310
vn 0.0884 -0.8980 0.4310
vn -0.0884 -0.8980 0.4310
vn -0.2619 -0.8635 0.4310
vn -0.4254 -0.7958 0.4310
vn -0.5724 -0.6975 0.4310
vn -0.6975 -0.5724 0.4310
vn -0.7958 -0.4254 0.4310
vn -0.8635 -0.2619 0.4310
vn -0.8980 -0.0884 0.4310
vn -0.8980 0.0884 0.4310
vn -0.8635 0.2619 0.4310
vn -0.7958 0.4254 0.4310
vn -0.6975 0.5724 0.4310
vn -0.5724 0.6975 0.4310
vn -0.4254 0.7958 0.4310
vn -0.2619 0.8635 0.4310
vn -0.0884 0.8980 0.4310
vt 1.000000 1.000000
vt 0.968750 0.500000
vt 1.000000 0.500000
vt 0.968750 1.000000
vt 0.937500 0.500000
vt 0.937500 1.000000
vt 0.906250 0.500000
vt 0.906250 1.000000
vt 0.875000 0.500000
vt 0.875000 1.000000
vt 0.843750 0.500000
vt 0.843750 1.000000
vt 0.812500 0.500000
vt 0.812500 1.000000
vt 0.781250 0.500000
vt 0.781250 1.000000
vt 0.750000 0.500000
vt 0.750000 1.000000
vt 0.718750 0.500000
vt 0.718750 1.000000
vt 0.687500 0.500000
vt 0.687500 1.000000
vt 0.656250 0.500000
vt 0.656250 1.000000
vt 0.625000 0.500000
vt 0.625000 1.000000
vt 0.593750 0.500000
vt 0.593750 1.000000
vt 0.562500 0.500000
vt 0.562500 1.000000
vt 0.531250 0.500000
vt 0.531250 1.000000
vt 0.500000 0.500000
vt 0.500000 1.000000
vt 0.468750 0.500000
vt 0.468750 1.000000
vt 0.437500 0.500000
vt 0.437500 1.000000
vt 0.406250 0.500000
vt 0.406250 1.000000
vt 0.375000 0.500000
vt 0.375000 1.000000
vt 0.343750 0.500000
vt 0.343750 1.000000
vt 0.312500 0.500000
vt 0.312500 1.000000
vt 0.281250 0.500000
vt 0.281250 1.000000
vt 0.250000 0.500000
vt 0.250000 1.000000
vt 0.218750 0.500000
vt 0.218750 1.000000
vt 0.187500 0.500000
vt 0.187500 1.000000
vt 0.156250 0.500000
vt 0.156250 1.000000
vt 0.125000 0.500000
vt 0.125000 1.000000
vt 0.093750 0.500000
vt 0.093750 1.000000
vt 0.062500 0.500000
vt 0.158156 0.028269
vt 0.471731 0.158156
vt 0.341844 0.471731
vt 0.062500 1.000000
vt 0.031250 0.500000
vt 0.031250 1.000000
vt 0.000000 0.500000
vt 0.796822 0.014612
vt 0.514612 0.203178
vt 0.703178 0.485388
vt 0.250000 0.490000
vt 0.250000 0.250000
vt 0.296822 0.485388
vt 0.383337 0.449553
vt 0.419706 0.419706
vt 0.449553 0.383337
vt 0.471731 0.341844
vt 0.485388 0.296822
vt 0.490000 0.250000
vt 0.485388 0.203178
vt 0.449553 0.116663
vt 0.419706 0.080294
vt 0.383337 0.050447
vt 0.341844 0.028269
vt 0.296822 0.014612
vt 0.250000 0.010000
vt 0.203178 0.014612
vt 0.158156 0.028269
vt 0.116663 0.050447
vt 0.080294 0.080294
vt 0.050447 0.116663
vt 0.028269 0.158156
vt 0.014612 0.203178
vt 0.010000 0.250000
vt 0.014612 0.296822
vt 0.028269 0.341844
vt 0.050447 0.383337
vt 0.080294 0.419706
vt 0.116663 0.449553
vt 0.158156 0.471731
vt 0.203178 0.485388
vt 0.080294 0.419706
vt 0.050447 0.383337
vt 0.028269 0.341844
vt 0.028269 0.158156
vt 0.050447 0.116663
vt 0.080294 0.080294
vt 0.116663 0.050447
vt 0.341844 0.028269
vt 0.383337 0.050447
vt 0.419706 0.080294
vt 0.000000 1.000000
vt 0.750000 0.490000
vt 0.796822 0.485388
vt 0.841844 0.471731
vt 0.883337 0.449553
vt 0.919706 0.419706
vt 0.949553 0.383337
vt 0.971731 0.341844
vt 0.985388 0.296822
vt 0.990000 0.250000
vt 0.985388 0.203178
vt 0.971731 0.158156
vt 0.949553 0.116663
vt 0.919706 0.080294
vt 0.883337 0.050447
vt 0.841844 0.028269
vt 0.750000 0.010000
vt 0.703178 0.014612
vt 0.658156 0.028269
vt 0.616663 0.050447
vt 0.580294 0.080294
vt 0.550447 0.116663
vt 0.528269 0.158156
vt 0.510000 0.250000
vt 0.514612 0.296822
vt 0.528269 0.341844
vt 0.550447 0.383337
vt 0.580294 0.419706
vt 0.616663 0.449553
vt 0.658156 0.471731
vt 0.919706 0.080294
vt 0.883337 0.050447
vt 0.841844 0.028269
vt 0.658156 0.028269
vt 0.616663 0.050447
vt 0.580294 0.080294
s 0
usemtl Mat_Translate_Z
f 99/149/67 100/150/67 98/151/67
f 101/152/68 102/153/68 100/150/68
f 103/154/69 104/155/69 102/153/69
f 105/156/70 106/157/70 104/155/70
f 107/158/71 108/159/71 106/157/71
f 109/160/72 110/161/72 108/159/72
f 111/162/73 112/163/73 110/161/73
f 113/164/74 114/165/74 112/163/74
f 115/166/75 116/167/75 114/165/75
f 117/168/76 118/169/76 116/167/76
f 119/170/77 120/171/77 118/169/77
f 121/172/78 122/173/78 120/171/78
f 123/174/79 124/175/79 122/173/79
f 125/176/80 126/177/80 124/175/80
f 127/178/81 128/179/81 126/177/81
f 129/180/82 130/181/82 128/179/82
f 131/182/83 132/183/83 130/181/83
f 133/184/84 134/185/84 132/183/84
f 135/186/85 136/187/85 134/185/85
f 137/188/86 138/189/86 136/187/86
f 139/190/87 140/191/87 138/189/87
f 141/192/88 142/193/88 140/191/88
f 143/194/89 144/195/89 142/193/89
f 145/196/90 146/197/90 144/195/90
f 147/198/91 148/199/91 146/197/91
f 149/200/92 150/201/92 148/199/92
f 151/202/93 152/203/93 150/201/93
f 153/204/94 154/205/94 152/203/94
f 155/206/95 156/207/95 154/205/95
f 157/208/96 158/209/96 156/207/96
f 135/210/97 119/211/97 103/212/97
f 159/213/98 160/214/98 158/209/98
f 161/215/99 98/216/99 160/214/99
f 128/217/100 144/218/100 160/219/100
f 162/220/101 194/221/101 163/222/101
f 163/222/102 194/221/102 164/212/102
f 164/212/103 194/221/103 165/223/103
f 165/223/104 194/221/104 166/224/104
f 166/224/105 194/221/105 167/225/105
f 167/225/106 194/221/106 168/226/106
f 168/226/107 194/221/107 169/227/107
f 169/227/108 194/221/108 170/228/108
f 170/228/109 194/221/109 171/229/109
f 171/229/110 194/221/110 172/211/110
f 172/211/111 194/221/111 173/230/111
f 173/230/112 194/221/112 174/231/112
f 174/231/113 194/221/113 175/232/113
f 175/232/114 194/221/114 176/233/114
f 176/233/115 194/221/115 177/234/115
f 177/234/116 194/221/116 178/235/116
f 178/235/117 194/221/117 179/236/117
f 179/236/118 194/221/118 180/237/118
f 180/237/119 194/221/119 181/238/119
f 181/238/120 194/221/120 182/239/120
f 182/239/121 194/221/121 183/240/121
f 183/240/122 194/221/122 184/241/122
f 184/241/123 194/221/123 185/242/123
f 185/242/124 194/221/124 186/243/124
f 186/243/125 194/221/125 187/244/125
f 187/244/126 194/221/126 188/245/126
f 188/245/127 194/221/127 189/246/127
f 189/246/128 194/221/128 190/247/128
f 190/247/129 194/221/129 191/248/129
f 191/248/130 194/221/130 192/249/130
f 177/217/100 185/218/100 193/219/100
f 192/249/131 194/221/131 193/250/131
f 193/250/132 194/221/132 162/220/132
f 99/149/67 101/152/67 100/150/67
f 101/152/68 103/154/68 102/153/68
f 103/154/69 105/156/69 104/155/69
f 105/156/70 107/158/70 106/157/70
f 107/158/71 109/160/71 108/159/71
f 109/160/72 111/162/72 110/161/72
f 111/162/73 113/164/73 112/163/73
f 113/164/74 115/166/74 114/165/74
f 115/166/75 117/168/75 116/167/75
f 117/168/76 119/170/76 118/169/76
f 119/170/77 121/172/77 120/171/77
f 121/172/78 123/174/78 122/173/78
f 123/174/79 125/176/79 124/175/79
f 125/176/80 127/178/80 126/177/80
f 127/178/81 129/180/81 128/179/81
f 129/180/82 131/182/82 130/181/82
f 131/182/83 133/184/83 132/183/83
f 133/184/84 135/186/84 134/185/84
f 135/186/85 137/188/85 136/187/85
f 137/188/86 139/190/86 138/189/86
f 139/190/87 141/192/87 140/191/87
f 141/192/88 143/194/88 142/193/88
f 143/194/89 145/196/89 144/195/89
f 145/196/90 147/198/90 146/197/90
f 147/198/91 149/200/91 148/199/91
f 149/200/92 151/202/92 150/201/92
f 151/202/93 153/204/93 152/203/93
f 153/204/94 155/206/94 154/205/94
f 155/206/95 157/208/95 156/207/95
f 157/208/96 159/213/96 158/209/96
f 103/212/97 101/222/97 99/220/97
f 99/220/97 161/250/97 159/249/97
f 159/249/97 157/248/97 155/251/97
f 155/251/97 153/252/97 151/253/97
f 151/253/97 149/244/97 147/243/97
f 147/243/97 145/242/97 143/254/97
f 143/254/97 141/255/97 139/256/97
f 139/256/97 137/257/97 135/210/97
f 135/210/97 133/236/97 131/235/97
f 131/235/97 129/234/97 127/258/97
f 127/258/97 125/259/97 123/260/97
f 123/260/97 121/230/97 119/211/97
f 119/211/97 117/229/97 115/228/97
f 115/228/97 113/227/97 111/226/97
f 111/226/97 109/225/97 107/224/97
f 107/224/97 105/223/97 103/212/97
f 103/212/97 99/220/97 159/249/97
f 159/249/97 155/251/97 151/253/97
f 151/253/97 147/243/97 143/254/97
f 143/254/97 139/256/97 135/210/97
f 135/210/97 131/235/97 127/258/97
f 127/258/97 123/260/97 119/211/97
f 119/211/97 115/228/97 111/226/97
f 111/226/97 107/224/97 103/212/97
f 103/212/97 159/249/97 151/253/97
f 151/253/97 143/254/97 135/210/97
f 135/210/97 127/258/97 119/211/97
f 119/211/97 111/226/97 103/212/97
f 103/212/97 151/253/97 135/210/97
f 159/213/98 161/215/98 160/214/98
f 161/215/99 99/261/99 98/216/99
f 160/219/100 98/262/100 100/263/100
f 100/263/100 102/264/100 104/265/100
f 104/265/100 106/266/100 108/267/100
f 108/267/100 110/268/100 112/269/100
f 112/269/100 114/270/100 116/271/100
f 116/271/100 118/272/100 120/273/100
f 120/273/100 122/274/100 124/275/100
f 124/275/100 126/276/100 128/217/100
f 128/217/100 130/277/100 132/278/100
f 132/278/100 134/279/100 136/280/100
f 136/280/100 138/281/100 140/282/100
f 140/282/100 142/283/100 144/218/100
f 144/218/100 146/284/100 148/285/100
f 148/285/100 150/286/100 152/287/100
f 152/287/100 154/288/100 156/289/100
f 156/289/100 158/290/100 160/219/100
f 160/219/100 100/263/100 104/265/100
f 104/265/100 108/267/100 112/269/100
f 112/269/100 116/271/100 120/273/100
f 120/273/100 124/275/100 128/217/100
f 128/217/100 132/278/100 136/280/100
f 136/280/100 140/282/100 144/218/100
f 144/218/100 148/285/100 152/287/100
f 152/287/100 156/289/100 160/219/100
f 160/219/100 104/265/100 112/269/100
f 112/269/100 120/273/100 128/217/100
f 128/217/100 136/280/100 144/218/100
f 144/218/100 152/287/100 160/219/100
f 160/219/100 112/269/100 128/217/100
f 193/219/100 162/262/100 163/263/100
f 163/263/100 164/264/100 165/265/100
f 165/265/100 166/266/100 167/267/100
f 167/267/100 168/268/100 169/269/100
f 169/269/100 170/270/100 171/271/100
f 171/271/100 172/272/100 173/273/100
f 173/273/100 174/291/100 175/292/100
f 175/292/100 176/293/100 177/217/100
f 177/217/100 178/277/100 179/278/100
f 179/278/100 180/294/100 181/295/100
f 181/295/100 182/296/100 183/282/100
f 183/282/100 184/283/100 185/218/100
f 185/218/100 186/284/100 187/285/100
f 187/285/100 188/286/100 189/287/100
f 189/287/100 190/288/100 191/289/100
f 191/289/100 192/290/100 193/219/100
f 193/219/100 163/263/100 165/265/100
f 165/265/100 167/267/100 169/269/100
f 169/269/100 171/271/100 173/273/100
f 173/273/100 175/292/100 177/217/100
f 177/217/100 179/278/100 181/295/100
f 181/295/100 183/282/100 185/218/100
f 185/218/100 187/285/100 189/287/100
f 189/287/100 191/289/100 193/219/100
f 193/219/100 165/265/100 169/269/100
f 169/269/100 173/273/100 177/217/100
f 177/217/100 181/295/100 185/218/100
f 185/218/100 189/287/100 193/219/100
f 193/219/100 169/269/100 177/217/100
o Translate_Y
v 0.000000 0.000000 -0.040000
v 0.000000 1.000000 -0.040000
v 0.007804 0.000000 -0.039231
v 0.007804 1.000000 -0.039231
v 0.015307 0.000000 -0.036955
v 0.015307 1.000000 -0.036955
v 0.022223 0.000000 -0.033259
v 0.022223 1.000000 -0.033259
v 0.028284 0.000000 -0.028284
v 0.028284 1.000000 -0.028284
v 0.033259 0.000000 -0.022223
v 0.033259 1.000000 -0.022223
v 0.036955 0.000000 -0.015307
v 0.036955 1.000000 -0.015307
v 0.039231 0.000000 -0.007804
v 0.039231 1.000000 -0.007804
v 0.040000 0.000000 0.000000
v 0.040000 1.000000 0.000000
v 0.039231 0.000000 0.007804
v 0.039231 1.000000 0.007804
v 0.036955 0.000000 0.015307
v 0.036955 1.000000 0.015307
v 0.033259 0.000000 0.022223
v 0.033259 1.000000 0.022223
v 0.028284 0.000000 0.028284
v 0.028284 1.000000 0.028284
v 0.022223 0.000000 0.033259
v 0.022223 1.000000 0.033259
v 0.015307 0.000000 0.036955
v 0.015307 1.000000 0.036955
v 0.007804 0.000000 0.039231
v 0.007804 1.000000 0.039231
v 0.000000 0.000000 0.040000
v 0.000000 1.000000 0.040000
v -0.007804 0.000000 0.039231
v -0.007804 1.000000 0.039231
v -0.015307 0.000000 0.036955
v -0.015307 1.000000 0.036955
v -0.022223 0.000000 0.033259
v -0.022223 1.000000 0.033259
v -0.028284 0.000000 0.028284
v -0.028284 1.000000 0.028284
v -0.033259 0.000000 0.022223
v -0.033259 1.000000 0.022223
v -0.036955 0.000000 0.015307
v -0.036955 1.000000 0.015307
v -0.039231 0.000000 0.007804
v -0.039231 1.000000 0.007804
v -0.040000 0.000000 0.000000
v -0.040000 1.000000 0.000000
v -0.039231 0.000000 -0.007804
v -0.039231 1.000000 -0.007804
v -0.036955 0.000000 -0.015307
v -0.036955 1.000000 -0.015307
v -0.033259 0.000000 -0.022223
v -0.033259 1.000000 -0.022223
v -0.028284 0.000000 -0.028284
v -0.028284 1.000000 -0.028284
v -0.022223 0.000000 -0.033259
v -0.022223 1.000000 -0.033259
v -0.015307 0.000000 -0.036955
v -0.015307 1.000000 -0.036955
v -0.007804 0.000000 -0.039231
v -0.007804 1.000000 -0.039231
v 0.000000 1.000000 -0.120000
v 0.023411 1.000000 -0.117694
v 0.045922 1.000000 -0.110866
v 0.066668 1.000000 -0.099776
v 0.084853 1.000000 -0.084853
v 0.099776 1.000000 -0.066668
v 0.110866 1.000000 -0.045922
v 0.117694 1.000000 -0.023411
v 0.120000 1.000000 0.000000
v 0.117694 1.000000 0.023411
v 0.110866 1.000000 0.045922
v 0.099776 1.000000 0.066668
v 0.084853 1.000000 0.084853
v 0.066668 1.000000 0.099776
v 0.045922 1.000000 0.110866
v 0.023411 1.000000 0.117694
v 0.000000 1.000000 0.120000
v -0.023411 1.000000 0.117694
v -0.045922 1.000000 0.110866
v -0.066668 1.000000 0.099776
v -0.084853 1.000000 0.084853
v -0.099776 1.000000 0.066668
v -0.110866 1.000000 0.045922
v -0.117694 1.000000 0.023411
v -0.120000 1.000000 0.000000
v -0.117694 1.000000 -0.023411
v -0.110866 1.000000 -0.045922
v -0.099776 1.000000 -0.066668
v -0.084853 1.000000 -0.084853
v -0.066668 1.000000 -0.099776
v -0.045922 1.000000 -0.110866
v -0.023411 1.000000 -0.117694
v 0.000000 1.250000 0.000000
vn 0.0980 -0.0000 -0.9952
vn 0.2903 -0.0000 -0.9569
vn 0.4714 -0.0000 -0.8819
vn 0.6344 -0.0000 -0.7730
vn 0.7730 -0.0000 -0.6344
vn 0.8819 -0.0000 -0.4714
vn 0.9569 -0.0000 -0.2903
vn 0.9952 -0.0000 -0.0980
vn 0.9952 -0.0000 0.0980
vn 0.9569 -0.0000 0.2903
vn 0.8819 -0.0000 0.4714
vn 0.7730 -0.0000 0.6344
vn 0.6344 -0.0000 0.7730
vn 0.4714 -0.0000 0.8819
vn 0.2903 -0.0000 0.9569
vn 0.0980 -0.0000 0.9952
vn -0.0980 -0.0000 0.9952
vn -0.2903 -0.0000 0.9569
vn -0.4714 -0.0000 0.8819
vn -0.6344 -0.0000 0.7730
vn -0.7730 -0.0000 0.6344
vn -0.8819 -0.0000 0.4714
vn -0.9569 -0.0000 0.2903
vn -0.9952 -0.0000 0.0980
vn -0.9952 -0.0000 -0.0980
vn -0.9569 -0.0000 -0.2903
vn -0.8819 -0.0000 -0.4714
vn -0.7730 -0.0000 -0.6344
vn -0.6344 -0.0000 -0.7730
vn -0.4714 -0.0000 -0.8819
vn -0.0000 1.0000 -0.0000
vn -0.2903 -0.0000 -0.9569
vn -0.0980 -0.0000 -0.9952
vn -0.0000 -1.0000 -0.0000
vn 0.0884 0.4310 -0.8980
vn 0.2619 0.4310 -0.8635
vn 0.4254 0.4310 -0.7958
vn 0.5724 0.4310 -0.6975
vn 0.6975 0.4310 -0.5724
vn 0.7958 0.4310 -0.4254
vn 0.8635 0.4310 -0.2619
vn 0.8980 0.4310 -0.0884
vn 0.8980 0.4310 0.0884
vn 0.8635 0.4310 0.2619
vn 0.7958 0.4310 0.4254
vn 0.6975 0.4310 0.5724
vn 0.5724 0.4310 0.6975
vn 0.4254 0.4310 0.7958
vn 0.2619 0.4310 0.8635
vn 0.0884 0.4310 0.8980
vn -0.0884 0.4310 0.8980
vn -0.2619 0.4310 0.8635
vn -0.4254 0.4310 0.7958
vn -0.5724 0.4310 0.6975
vn -0.6975 0.4310 0.5724
vn -0.7958 0.4310 0.4254
vn -0.8635 0.4310 0.2619
vn -0.8980 0.4310 0.0884
vn -0.8980 0.4310 -0.0884
vn -0.8635 0.4310 -0.2619
vn -0.7958 0.4310 -0.4254
vn -0.6975 0.4310 -0.5724
vn -0.5724 0.4310 -0.6975
vn -0.4254 0.4310 -0.7958
vn -0.2619 0.4310 -0.8635
vn -0.0884 0.4310 -0.8980
vt 1.000000 1.000000
vt 0.968750 0.500000
vt 1.000000 0.500000
vt 0.968750 1.000000
vt 0.937500 0.500000
vt 0.937500 1.000000
vt 0.906250 0.500000
vt 0.906250 1.000000
vt 0.875000 0.500000
vt 0.875000 1.000000
vt 0.843750 0.500000
vt 0.843750 1.000000
vt 0.812500 0.500000
vt 0.812500 1.000000
vt 0.781250 0.500000
vt 0.781250 1.000000
vt 0.750000 0.500000
vt 0.750000 1.000000
vt 0.718750 0.500000
vt 0.718750 1.000000
vt 0.687500 0.500000
vt 0.687500 1.000000
vt 0.656250 0.500000
vt 0.656250 1.000000
vt 0.625000 0.500000
vt 0.625000 1.000000
vt 0.593750 0.500000
vt 0.593750 1.000000
vt 0.562500 0.500000
vt 0.562500 1.000000
vt 0.531250 0.500000
vt 0.531250 1.000000
vt 0.500000 0.500000
vt 0.500000 1.000000
vt 0.468750 0.500000
vt 0.468750 1.000000
vt 0.437500 0.500000
vt 0.437500 1.000000
vt 0.406250 0.500000
vt 0.406250 1.000000
vt 0.375000 0.500000
vt 0.375000 1.000000
vt 0.343750 0.500000
vt 0.343750 1.000000
vt 0.312500 0.500000
vt 0.312500 1.000000
vt 0.281250 0.500000
vt 0.281250 1.000000
vt 0.250000 0.500000
vt 0.250000 1.000000
vt 0.218750 0.500000
vt 0.218750 1.000000
vt 0.187500 0.500000
vt 0.187500 1.000000
vt 0.156250 0.500000
vt 0.156250 1.000000
vt 0.125000 0.500000
vt 0.125000 1.000000
vt 0.093750 0.500000
vt 0.093750 1.000000
vt 0.062500 0.500000
vt 0.158156 0.028269
vt 0.471731 0.158156
vt 0.341844 0.471731
vt 0.062500 1.000000
vt 0.031250 0.500000
vt 0.031250 1.000000
vt 0.000000 0.500000
vt 0.796822 0.014612
vt 0.514612 0.203178
vt 0.703178 0.485388
vt 0.250000 0.490000
vt 0.250000 0.250000
vt 0.296822 0.485388
vt 0.383337 0.449553
vt 0.419706 0.419706
vt 0.449553 0.383337
vt 0.471731 0.341844
vt 0.485388 0.296822
vt 0.490000 0.250000
vt 0.485388 0.203178
vt 0.449553 0.116663
vt 0.419706 0.080294
vt 0.383337 0.050447
vt 0.341844 0.028269
vt 0.296822 0.014612
vt 0.250000 0.010000
vt 0.203178 0.014612
vt 0.158156 0.028269
vt 0.116663 0.050447
vt 0.080294 0.080294
vt 0.050447 0.116663
vt 0.028269 0.158156
vt 0.014612 0.203178
vt 0.010000 0.250000
vt 0.014612 0.296822
vt 0.028269 0.341844
vt 0.050447 0.383337
vt 0.080294 0.419706
vt 0.116663 0.449553
vt 0.158156 0.471731
vt 0.203178 0.485388
vt 0.080294 0.419706
vt 0.050447 0.383337
vt 0.028269 0.341844
vt 0.028269 0.158156
vt 0.050447 0.116663
vt 0.080294 0.080294
vt 0.116663 0.050447
vt 0.341844 0.028269
vt 0.383337 0.050447
vt 0.419706 0.080294
vt 0.000000 1.000000
vt 0.750000 0.490000
vt 0.796822 0.485388
vt 0.841844 0.471731
vt 0.883337 0.449553
vt 0.919706 0.419706
vt 0.949553 0.383337
vt 0.971731 0.341844
vt 0.985388 0.296822
vt 0.990000 0.250000
vt 0.985388 0.203178
vt 0.971731 0.158156
vt 0.949553 0.116663
vt 0.919706 0.080294
vt 0.883337 0.050447
vt 0.841844 0.028269
vt 0.750000 0.010000
vt 0.703178 0.014612
vt 0.658156 0.028269
vt 0.616663 0.050447
vt 0.580294 0.080294
vt 0.550447 0.116663
vt 0.528269 0.158156
vt 0.510000 0.250000
vt 0.514612 0.296822
vt 0.528269 0.341844
vt 0.550447 0.383337
vt 0.580294 0.419706
vt 0.616663 0.449553
vt 0.658156 0.471731
vt 0.919706 0.080294
vt 0.883337 0.050447
vt 0.841844 0.028269
vt 0.658156 0.028269
vt 0.616663 0.050447
vt 0.580294 0.080294
s 0
usemtl Mat_Translate_Y
f 196/297/133 197/298/133 195/299/133
f 198/300/134 199/301/134 197/298/134
f 200/302/135 201/303/135 199/301/135
f 202/304/136 203/305/136 201/303/136
f 204/306/137 205/307/137 203/305/137
f 206/308/138 207/309/138 205/307/138
f 208/310/139 209/311/139 207/309/139
f 210/312/140 211/313/140 209/311/140
f 212/314/141 213/315/141 211/313/141
f 214/316/142 215/317/142 213/315/142
f 216/318/143 217/319/143 215/317/143
f 218/320/144 219/321/144 217/319/144
f 220/322/145 221/323/145 219/321/145
f 222/324/146 223/325/146 221/323/146
f 224/326/147 225/327/147 223/325/147
f 226/328/148 227/329/148 225/327/148
f 228/330/149 229/331/149 227/329/149
f 230/332/150 231/333/150 229/331/150
f 232/334/151 233/335/151 231/333/151
f 234/336/152 235/337/152 233/335/152
f 236/338/153 237/339/153 235/337/153
f 238/340/154 239/341/154 237/339/154
f 240/342/155 241/343/155 239/341/155
f 242/344/156 243/345/156 241/343/156
f 244/346/157 245/347/157 243/345/157
f 246/348/158 247/349/158 245/347/158
f 248/350/159 249/351/159 247/349/159
f 250/352/160 251/353/160 249/351/160
f 252/354/161 253/355/161 251/353/161
f 254/356/162 255/357/162 253/355/162
f 232/358/163 216/359/163 200/360/163
f 256/361/164 257/362/164 255/357/164
f 258/363/165 195/364/165 257/362/165
f 225/365/166 241/366/166 257/367/166
f 259/368/167 291/369/167 260/370/167
f 260/370/168 291/369/168 261/360/168
f 261/360/169 291/369/169 262/371/169
f 262/371/170 291/369/170 263/372/170
f 263/372/171 291/369/171 264/373/171
f 264/373/172 291/369/172 265/374/172
f 265/374/173 291/369/173 266/375/173
f 266/375/174 291/369/174 267/376/174
f 267/376/175 291/369/175 268/377/175
f 268/377/176 291/369/176 269/359/176
f 269/359/177 291/369/177 270/378/177
f 270/378/178 291/369/178 271/379/178
f 271/379/179 291/369/179 272/380/179
f 272/380/180 291/369/180 273/381/180
f 273/381/181 291/369/181 274/382/181
f 274/382/182 291/369/182 275/383/182
f 275/383/183 291/369/183 276/384/183
f 276/384/184 291/369/184 277/385/184
f 277/385/185 291/369/185 278/386/185
f 278/386/186 291/369/186 279/387/186
f 279/387/187 291/369/187 280/388/187
f 280/388/188 291/369/188 281/389/188
f 281/389/189 291/369/189 282/390/189
f 282/390/190 291/369/190 283/391/190
f 283/391/191 291/369/191 284/392/191
f 284/392/192 291/369/192 285/393/192
f 285/393/193 291/369/193 286/394/193
f 286/394/194 291/369/194 287/395/194
f 287/395/195 291/369/195 288/396/195
f 288/396/196 291/369/196 289/397/196
f 274/365/166 282/366/166 290/367/166
f 289/397/197 291/369/197 290/398/197
f 290/398/198 291/369/198 259/368/198
f 196/297/133 198/300/133 197/298/133
f 198/300/134 200/302/134 199/301/134
f 200/302/135 202/304/135 201/303/135
f 202/304/136 204/306/136 203/305/136
f 204/306/137 206/308/137 205/307/137
f 206/308/138 208/310/138 207/309/138
f 208/310/139 210/312/139 209/311/139
f 210/312/140 212/314/140 211/313/140
f 212/314/141 214/316/141 213/315/141
f 214/316/142 216/318/142 215/317/142
f 216/318/143 218/320/143 217/319/143
f 218/320/144 220/322/144 219/321/144
f 220/322/145 222/324/145 221/323/145
f 222/324/146 224/326/146 223/325/146
f 224/326/147 226/328/147 225/327/147
f 226/328/148 228/330/148 227/329/148
f 228/330/149 230/332/149 229/331/149
f 230/332/150 232/334/150 231/333/150
f 232/334/151 234/336/151 233/335/151
f 234/336/152 236/338/152 235/337/152
f 236/338/153 238/340/153 237/339/153
f 238/340/154 240/342/154 239/341/154
f 240/342/155 242/344/155 241/343/155
f 242/344/156 244/346/156 243/345/156
f 244/346/157 246/348/157 245/347/157
f 246/348/158 248/350/158 247/349/158
f 248/350/159 250/352/159 249/351/159
f 250/352/160 252/354/160 251/353/160
f 252/354/161 254/356/161 253/355/161
f 254/356/162 256/361/162 255/357/162
f 200/360/163 198/370/163 196/368/163
f 196/368/163 258/398/163 256/397/163
f 256/397/163 254/396/163 252/399/163
f 252/399/163 250/400/163 248/401/163
f 248/401/163 246/392/163 244/391/163
f 244/391/163 242/390/163 240/402/163
f 240/402/163 238/403/163 236/404/163
f 236/404/163 234/405/163 232/358/163
f 232/358/163 230/384/163 228/383/163
f 228/383/163 226/382/163 224/406/163
f 224/406/163 222/407/163 220/408/163
f 220/408/163 218/378/163 216/359/163
f 216/359/163 214/377/163 212/376/163
f 212/376/163 210/375/163 208/374/163
f 208/374/163 206/373/163 204/372/163
f 204/372/163 202/371/163 200/360/163
f 200/360/163 196/368/163 256/397/163
f 256/397/163 252/399/163 248/401/163
f 248/401/163 244/391/163 240/402/163
f 240/402/163 236/404/163 232/358/163
f 232/358/163 228/383/163 224/406/163
f 224/406/163 220/408/163 216/359/163
f 216/359/163 212/376/163 208/374/163
f 208/374/163 204/372/163 200/360/163
f 200/360/163 256/397/163 248/401/163
f 248/401/163 240/402/163 232/358/163
f 232/358/163 224/406/163 216/359/163
f 216/359/163 208/374/163 200/360/163
f 200/360/163 248/401/163 232/358/163
f 256/361/164 258/363/164 257/362/164
f 258/363/165 196/409/165 195/364/165
f 257/367/166 195/410/166 197/411/166
f 197/411/166 199/412/166 201/413/166
f 201/413/166 203/414/166 205/415/166
f 205/415/166 207/416/166 209/417/166
f 209/417/166 211/418/166 213/419/166
f 213/419/166 215/420/166 217/421/166
f 217/421/166 219/422/166 221/423/166
f 221/423/166 223/424/166 225/365/166
f 225/365/166 227/425/166 229/426/166
f 229/426/166 231/427/166 233/428/166
f 233/428/166 235/429/166 237/430/166
f 237/430/166 239/431/166 241/366/166
f 241/366/166 243/432/166 245/433/166
f 245/433/166 247/434/166 249/435/166
f 249/435/166 251/436/166 253/437/166
f 253/437/166 255/438/166 257/367/166
f 257/367/166 197/411/166 201/413/166
f 201/413/166 205/415/166 209/417/166
f 209/417/166 213/419/166 217/421/166
f 217/421/166 221/423/166 225/365/166
f 225/365/166 229/426/166 233/428/166
f 233/428/166 237/430/166 241/366/166
f 241/366/166 245/433/166 249/435/166
f 249/435/166 253/437/166 257/367/166
f 257/367/166 201/413/166 209/417/166
f 209/417/166 217/421/166 225/365/166
f 225/365/166 233/428/166 241/366/166
f 241/366/166 249/435/166 257/367/166
f 257/367/166 209/417/166 225/365/166
f 290/367/166 259/410/166 260/411/166
f 260/411/166 261/412/166 262/413/166
f 262/413/166 263/414/166 264/415/166
f 264/415/166 265/416/166 266/417/166
f 266/417/166 267/418/166 268/419/166
f 268/419/166 269/420/166 270/421/166
f 270/421/166 271/439/166 272/440/166
f 272/440/166 273/441/166 274/365/166
f 274/365/166 275/425/166 276/426/166
f 276/426/166 277/442/166 278/443/166
f 278/443/166 279/444/166 280/430/166
f 280/430/166 281/431/166 282/366/166
f 282/366/166 283/432/166 284/433/166
f 284/433/166 285/434/166 286/435/166
f 286/435/166 287/436/166 288/437/166
f 288/437/166 289/438/166 290/367/166
f 290/367/166 260/411/166 262/413/166
f 262/413/166 264/415/166 266/417/166
f 266/417/166 268/419/166 270/421/166
f 270/421/166 272/440/166 274/365/166
f 274/365/166 276/426/166 278/443/166
f 278/443/166 280/430/166 282/366/166
f 282/366/166 284/433/166 286/435/166
f 286/435/166 288/437/166 290/367/166
f 290/367/166 262/413/166 266/417/166
f 266/417/166 270/421/166 274/365/166
f 274/365/166 278/443/166 282/366/166
f 282/366/166 286/435/166 290/367/166
f 290/367/166 266/417/166 274/365/166
o Translate_Centroid
v -0.125000 -0.125000 0.125000
v -0.125000 0.125000 0.125000
v -0.125000 -0.125000 -0.125000
v -0.125000 0.125000 -0.125000
v 0.125000 -0.125000 0.125000
v 0.125000 0.125000 0.125000
v 0.125000 -0.125000 -0.125000
v 0.125000 0.125000 -0.125000
vn -1.0000 -0.0000 -0.0000
vn -0.0000 -0.0000 -1.0000
vn 1.0000 -0.0000 -0.0000
vn -0.0000 -0.0000 1.0000
vn -0.0000 -1.0000 -0.0000
vn -0.0000 1.0000 -0.0000
vt 0.625000 0.000000
vt 0.375000 0.250000
vt 0.375000 0.000000
vt 0.625000 0.250000
vt 0.375000 0.500000
vt 0.625000 0.500000
vt 0.375000 0.750000
vt 0.625000 0.750000
vt 0.375000 1.000000
vt 0.125000 0.750000
vt 0.125000 0.500000
vt 0.875000 0.500000
vt 0.625000 1.000000
vt 0.875000 0.750000
s 0
usemtl Mat_Translate_Centroid
f 293/445/199 294/446/199 292/447/199
f 295/448/200 298/449/200 294/446/200
f 299/450/201 296/451/201 298/449/201
f 297/452/202 292/453/202 296/451/202
f 298/449/203 292/454/203 294/455/203
f 295/456/204 297/452/204 299/450/204
f 293/445/199 295/448/199 294/446/199
f 295/448/200 299/450/200 298/449/200
f 299/450/201 297/452/201 296/451/201
f 297/452/202 293/457/202 292/453/202
f 298/449/203 296/451/203 292/454/203
f 295/456/204 293/458/204 297/452/204
