# Blender v3.0.1 OBJ File: 'gizmo.blend'
# www.blender.org
mtllib scale_gizmo.mtl
o Scale_X_Cylinder.008
v 0.000000 0.000000 -0.040000
v 1.000000 -0.000000 -0.040000
v 0.000000 -0.007804 -0.039231
v 1.000000 -0.007804 -0.039231
v 0.000000 -0.015307 -0.036955
v 1.000000 -0.015307 -0.036955
v 0.000000 -0.022223 -0.033259
v 1.000000 -0.022223 -0.033259
v 0.000000 -0.028284 -0.028284
v 1.000000 -0.028284 -0.028284
v 0.000000 -0.033259 -0.022223
v 1.000000 -0.033259 -0.022223
v 0.000000 -0.036955 -0.015307
v 1.000000 -0.036955 -0.015307
v 0.000000 -0.039231 -0.007804
v 1.000000 -0.039231 -0.007804
v 0.000000 -0.040000 0.000000
v 1.000000 -0.040000 0.000000
v 0.000000 -0.039231 0.007804
v 1.000000 -0.039231 0.007804
v 0.000000 -0.036955 0.015307
v 1.000000 -0.036955 0.015307
v 0.000000 -0.033259 0.022223
v 1.000000 -0.033259 0.022223
v 0.000000 -0.028284 0.028284
v 1.000000 -0.028284 0.028284
v 0.000000 -0.022223 0.033259
v 1.000000 -0.022223 0.033259
v 0.000000 -0.015307 0.036955
v 1.000000 -0.015307 0.036955
v 0.000000 -0.007804 0.039231
v 1.000000 -0.007804 0.039231
v 0.000000 0.000000 0.040000
v 1.000000 -0.000000 0.040000
v 0.000000 0.007804 0.039231
v 1.000000 0.007804 0.039231
v 0.000000 0.015307 0.036955
v 1.000000 0.015307 0.036955
v 0.000000 0.022223 0.033259
v 1.000000 0.022223 0.033259
v 0.000000 0.028284 0.028284
v 1.000000 0.028284 0.028284
v 0.000000 0.033259 0.022223
v 1.000000 0.033259 0.022223
v 0.000000 0.036955 0.015307
v 1.000000 0.036955 0.015307
v 0.000000 0.039231 0.007804
v 1.000000 0.039231 0.007804
v 0.000000 0.040000 -0.000000
v 1.000000 0.040000 -0.000000
v 0.000000 0.039231 -0.007804
v 1.000000 0.039231 -0.007804
v 0.000000 0.036955 -0.015307
v 1.000000 0.036955 -0.015307
v 0.000000 0.033259 -0.022223
v 1.000000 0.033259 -0.022223
v 0.000000 0.028284 -0.028284
v 1.000000 0.028284 -0.028284
v 0.000000 0.022223 -0.033259
v 1.000000 0.022223 -0.033259
v 0.000000 0.015307 -0.036955
v 1.000000 0.015307 -0.036955
v 0.000000 0.007804 -0.039231
v 1.000000 0.007804 -0.039231
v 1.000000 0.100000 0.100000
v 1.200000 0.100000 0.100000
v 1.000000 0.100000 -0.100000
v 1.200000 0.100000 -0.100000
v 1.000000 -0.100000 0.100000
v 1.200000 -0.100000 0.100000
v 1.000000 -0.100000 -0.100000
v 1.200000 -0.100000 -0.100000
usemtl Mat_Scale_X
s off
f 2 3 1
f 4 5 3
f 6 7 5
f 8 9 7
f 10 11 9
f 12 13 11
f 14 15 13
f 16 17 15
f 18 19 17
f 20 21 19
f 22 23 21
f 24 25 23
f 26 27 25
f 28 29 27
f 30 31 29
f 32 33 31
f 34 35 33
f 36 37 35
f 38 39 37
f 40 41 39
f 42 43 41
f 44 45 43
f 46 47 45
f 48 49 47
f 50 51 49
f 52 53 51
f 54 55 53
f 56 57 55
f 58 59 57
f 60 61 59
f 38 22 6
f 62 63 61
f 64 1 63
f 63 15 31
f 66 67 65
f 68 71 67
f 72 69 71
f 70 65 69
f 71 65 67
f 68 70 72
f 2 4 3
f 4 6 5
f 6 8 7
f 8 10 9
f 10 12 11
f 12 14 13
f 14 16 15
f 16 18 17
f 18 20 19
f 20 22 21
f 22 24 23
f 24 26 25
f 26 28 27
f 28 30 29
f 30 32 31
f 32 34 33
f 34 36 35
f 36 38 37
f 38 40 39
f 40 42 41
f 42 44 43
f 44 46 45
f 46 48 47
f 48 50 49
f 50 52 51
f 52 54 53
f 54 56 55
f 56 58 57
f 58 60 59
f 60 62 61
f 6 4 62
f 4 2 62
f 2 64 62
f 62 60 58
f 58 56 54
f 54 52 50
f 50 48 54
f 48 46 54
f 46 44 38
f 44 42 38
f 42 40 38
f 38 36 34
f 34 32 30
f 30 28 26
f 26 24 22
f 22 20 14
f 20 18 14
f 18 16 14
f 14 12 10
f 10 8 6
f 62 58 54
f 38 34 30
f 30 26 22
f 14 10 6
f 6 62 54
f 54 46 6
f 46 38 6
f 38 30 22
f 22 14 6
f 62 64 63
f 64 2 1
f 63 1 3
f 3 5 7
f 7 9 11
f 11 13 7
f 13 15 7
f 15 17 19
f 19 21 23
f 23 25 27
f 27 29 23
f 29 31 23
f 31 33 35
f 35 37 31
f 37 39 31
f 39 41 43
f 43 45 47
f 47 49 51
f 51 53 55
f 55 57 59
f 59 61 55
f 61 63 55
f 63 3 15
f 3 7 15
f 15 19 23
f 39 43 47
f 47 51 63
f 51 55 63
f 15 23 31
f 31 39 63
f 39 47 63
f 66 68 67
f 68 72 71
f 72 70 69
f 70 66 65
f 71 69 65
f 68 66 70
o Scale_Y_Cylinder.009
v 0.000000 -0.040000 0.000000
v 0.000000 -0.040000 -1.000000
v 0.007804 -0.039231 0.000000
v 0.007804 -0.039231 -1.000000
v 0.015307 -0.036955 0.000000
v 0.015307 -0.036955 -1.000000
v 0.022223 -0.033259 0.000000
v 0.022223 -0.033259 -1.000000
v 0.028284 -0.028284 0.000000
v 0.028284 -0.028284 -1.000000
v 0.033259 -0.022223 0.000000
v 0.033259 -0.022223 -1.000000
v 0.036955 -0.015307 0.000000
v 0.036955 -0.015307 -1.000000
v 0.039231 -0.007804 0.000000
v 0.039231 -0.007804 -1.000000
v 0.040000 0.000000 0.000000
v 0.040000 -0.000000 -1.000000
v 0.039231 0.007804 0.000000
v 0.039231 0.007804 -1.000000
v 0.036955 0.015307 0.000000
v 0.036955 0.015307 -1.000000
v 0.033259 0.022223 0.000000
v 0.033259 0.022223 -1.000000
v 0.028284 0.028284 0.000000
v 0.028284 0.028284 -1.000000
v 0.022223 0.033259 0.000000
v 0.022223 0.033259 -1.000000
v 0.015307 0.036955 0.000000
v 0.015307 0.036955 -1.000000
v 0.007804 0.039231 0.000000
v 0.007804 0.039231 -1.000000
v -0.000000 0.040000 0.000000
v -0.000000 0.040000 -1.000000
v -0.007804 0.039231 0.000000
v -0.007804 0.039231 -1.000000
v -0.015307 0.036955 0.000000
v -0.015307 0.036955 -1.000000
v -0.022223 0.033259 0.000000
v -0.022223 0.033259 -1.000000
v -0.028284 0.028284 0.000000
v -0.028284 0.028284 -1.000000
v -0.033259 0.022223 0.000000
v -0.033259 0.022223 -1.000000
v -0.036955 0.015307 0.000000
v -0.036955 0.015307 -1.000000
v -0.039231 0.007804 0.000000
v -0.039231 0.007804 -1.000000
v -0.040000 0.000000 0.000000
v -0.040000 -0.000000 -1.000000
v -0.039231 -0.007804 0.000000
v -0.039231 -0.007804 -1.000000
v -0.036955 -0.015307 0.000000
v -0.036955 -0.015307 -1.000000
v -0.033259 -0.022223 0.000000
v -0.033259 -0.022223 -1.000000
v -0.028284 -0.028284 0.000000
v -0.028284 -0.028284 -1.000000
v -0.022223 -0.033259 0.000000
v -0.022223 -0.033259 -1.000000
v -0.015307 -0.036955 0.000000
v -0.015307 -0.036955 -1.000000
v -0.007804 -0.039231 0.000000
v -0.007804 -0.039231 -1.000000
v -0.100000 0.100000 -1.000000
v -0.100000 0.100000 -1.200000
v -0.100000 -0.100000 -1.000000
v -0.100000 -0.100000 -1.200000
v 0.100000 0.100000 -1.000000
v 0.100000 0.100000 -1.200000
v 0.100000 -0.100000 -1.000000
v 0.100000 -0.100000 -1.200000
usemtl Mat_Scale_Y
s off
f 74 75 73
f 76 77 75
f 78 79 77
f 80 81 79
f 82 83 81
f 84 85 83
f 86 87 85
f 88 89 87
f 90 91 89
f 92 93 91
f 94 95 93
f 96 97 95
f 98 99 97
f 100 101 99
f 102 103 101
f 104 105 103
f 106 107 105
f 108 109 107
f 110 111 109
f 112 113 111
f 114 115 113
f 116 117 115
f 118 119 117
f 120 121 119
f 122 123 121
f 124 125 123
f 126 127 125
f 128 129 127
f 130 131 129
f 132 133 131
f 110 94 78
f 134 135 133
f 136 73 135
f 135 87 103
f 138 139 137
f 140 143 139
f 144 141 143
f 142 137 141
f 143 137 139
f 140 142 144
f 74 76 75
f 76 78 77
f 78 80 79
f 80 82 81
f 82 84 83
f 84 86 85
f 86 88 87
f 88 90 89
f 90 92 91
f 92 94 93
f 94 96 95
f 96 98 97
f 98 100 99
f 100 102 101
f 102 104 103
f 104 106 105
f 106 108 107
f 108 110 109
f 110 112 111
f 112 114 113
f 114 116 115
f 116 118 117
f 118 120 119
f 120 122 121
f 122 124 123
f 124 126 125
f 126 128 127
f 128 130 129
f 130 132 131
f 132 134 133
f 78 76 134
f 76 74 134
f 74 136 134
f 134 132 130
f 130 128 126
f 126 124 122
f 122 120 126
f 120 118 126
f 118 116 110
f 116 114 110
f 114 112 110
f 110 108 106
f 106 104 102
f 102 100 98
f 98 96 94
f 94 92 86
f 92 90 86
f 90 88 86
f 86 84 82
f 82 80 78
f 134 130 126
f 110 106 102
f 102 98 94
f 86 82 78
f 78 134 126
f 126 118 78
f 118 110 78
f 110 102 94
f 94 86 78
f 134 136 135
f 136 74 73
f 135 73 75
f 75 77 79
f 79 81 83
f 83 85 79
f 85 87 79
f 87 89 91
f 91 93 95
f 95 97 99
f 99 101 95
f 101 103 95
f 103 105 107
f 107 109 103
f 109 111 103
f 111 113 115
f 115 117 119
f 119 121 123
f 123 125 127
f 127 129 131
f 131 133 127
f 133 135 127
f 135 75 87
f 75 79 87
f 87 91 95
f 111 115 119
f 119 123 135
f 123 127 135
f 87 95 103
f 103 111 135
f 111 119 135
f 138 140 139
f 140 144 143
f 144 142 141
f 142 138 137
f 143 141 137
f 140 138 142
o Scale_Z_Cylinder.010
v 0.000000 0.000000 -0.040000
v 0.000000 1.000000 -0.040000
v 0.007804 0.000000 -0.039231
v 0.007804 1.000000 -0.039231
v 0.015307 0.000000 -0.036955
v 0.015307 1.000000 -0.036955
v 0.022223 0.000000 -0.033259
v 0.022223 1.000000 -0.033259
v 0.028284 0.000000 -0.028284
v 0.028284 1.000000 -0.028284
v 0.033259 0.000000 -0.022223
v 0.033259 1.000000 -0.022223
v 0.036955 0.000000 -0.015307
v 0.036955 1.000000 -0.015307
v 0.039231 0.000000 -0.007804
v 0.039231 1.000000 -0.007804
v 0.040000 0.000000 0.000000
v 0.040000 1.000000 0.000000
v 0.039231 0.000000 0.007804
v 0.039231 1.000000 0.007804
v 0.036955 0.000000 0.015307
v 0.036955 1.000000 0.015307
v 0.033259 0.000000 0.022223
v 0.033259 1.000000 0.022223
v 0.028284 0.000000 0.028284
v 0.028284 1.000000 0.028284
v 0.022223 0.000000 0.033259
v 0.022223 1.000000 0.033259
v 0.015307 0.000000 0.036955
v 0.015307 1.000000 0.036955
v 0.007804 0.000000 0.039231
v 0.007804 1.000000 0.039231
v -0.000000 0.000000 0.040000
v -0.000000 1.000000 0.040000
v -0.007804 0.000000 0.039231
v -0.007804 1.000000 0.039231
v -0.015307 0.000000 0.036955
v -0.015307 1.000000 0.036955
v -0.022223 0.000000 0.033259
v -0.022223 1.000000 0.033259
v -0.028284 0.000000 0.028284
v -0.028284 1.000000 0.028284
v -0.033259 0.000000 0.022223
v -0.033259 1.000000 0.022223
v -0.036955 0.000000 0.015307
v -0.036955 1.000000 0.015307
v -0.039231 0.000000 0.007804
v -0.039231 1.000000 0.007804
v -0.040000 0.000000 -0.000000
v -0.040000 1.000000 -0.000000
v -0.039231 0.000000 -0.007804
v -0.039231 1.000000 -0.007804
v -0.036955 0.000000 -0.015307
v -0.036955 1.000000 -0.015307
v -0.033259 0.000000 -0.022223
v -0.033259 1.000000 -0.022223
v -0.028284 0.000000 -0.028284
v -0.028284 1.000000 -0.028284
v -0.022223 0.000000 -0.033259
v -0.022223 1.000000 -0.033259
v -0.015307 0.000000 -0.036955
v -0.015307 1.000000 -0.036955
v -0.007804 0.000000 -0.039231
v -0.007804 1.000000 -0.039231
v -0.100000 1.000000 0.100000
v -0.100000 1.200000 0.100000
v -0.100000 1.000000 -0.100000
v -0.100000 1.200000 -0.100000
v 0.100000 1.000000 0.100000
v 0.100000 1.200000 0.100000
v 0.100000 1.000000 -0.100000
v 0.100000 1.200000 -0.100000
usemtl Mat_Scale_Z
s off
f 146 147 145
f 148 149 147
f 150 151 149
f 152 153 151
f 154 155 153
f 156 157 155
f 158 159 157
f 160 161 159
f 162 163 161
f 164 165 163
f 166 167 165
f 168 169 167
f 170 171 169
f 172 173 171
f 174 175 173
f 176 177 175
f 178 179 177
f 180 181 179
f 182 183 181
f 184 185 183
f 186 187 185
f 188 189 187
f 190 191 189
f 192 193 191
f 194 195 193
f 196 197 195
f 198 199 197
f 200 201 199
f 202 203 201
f 204 205 203
f 182 166 150
f 206 207 205
f 208 145 207
f 207 159 175
f 210 211 209
f 212 215 211
f 216 213 215
f 214 209 213
f 215 209 211
f 212 214 216
f 146 148 147
f 148 150 149
f 150 152 151
f 152 154 153
f 154 156 155
f 156 158 157
f 158 160 159
f 160 162 161
f 162 164 163
f 164 166 165
f 166 168 167
f 168 170 169
f 170 172 171
f 172 174 173
f 174 176 175
f 176 178 177
f 178 180 179
f 180 182 181
f 182 184 183
f 184 186 185
f 186 188 187
f 188 190 189
f 190 192 191
f 192 194 193
f 194 196 195
f 196 198 197
f 198 200 199
f 200 202 201
f 202 204 203
f 204 206 205
f 150 148 206
f 148 146 206
f 146 208 206
f 206 204 202
f 202 200 198
f 198 196 194
f 194 192 198
f 192 190 198
f 190 188 182
f 188 186 182
f 186 184 182
f 182 180 178
f 178 176 174
f 174 172 170
f 170 168 166
f 166 164 158
f 164 162 158
f 162 160 158
f 158 156 154
f 154 152 150
f 206 202 198
f 182 178 174
f 174 170 166
f 158 154 150
f 150 206 198
f 198 190 150
f 190 182 150
f 182 174 166
f 166 158 150
f 206 208 207
f 208 146 145
f 207 145 147
f 147 149 151
f 151 153 155
f 155 157 151
f 157 159 151
f 159 161 163
f 163 165 167
f 167 169 171
f 171 173 167
f 173 175 167
f 175 177 179
f 179 181 175
f 181 183 175
f 183 185 187
f 187 189 191
f 191 193 195
f 195 197 199
f 199 201 203
f 203 205 199
f 205 207 199
f 207 147 159
f 147 151 159
f 159 163 167
f 183 187 191
f 191 195 207
f 195 199 207
f 159 167 175
f 175 183 207
f 183 191 207
f 210 212 211
f 212 216 215
f 216 214 213
f 214 210 209
f 215 213 209
f 212 210 214
