# Blender v3.0.1 OBJ File: ''
# www.blender.org
mtllib translate_gizmo.mtl
o Translate_X_Cylinder.005
v 1.000000 0.000000 -0.040000
v 0.000000 -0.007804 -0.039231
v 0.000000 0.000000 -0.040000
v 1.000000 -0.007804 -0.039231
v 0.000000 -0.015307 -0.036955
v 1.000000 -0.015307 -0.036955
v 0.000000 -0.022223 -0.033259
v 1.000000 -0.022223 -0.033259
v 0.000000 -0.028284 -0.028284
v 1.000000 -0.028284 -0.028284
v 0.000000 -0.033259 -0.022223
v 1.000000 -0.033259 -0.022223
v 0.000000 -0.036955 -0.015307
v 1.000000 -0.036955 -0.015307
v 0.000000 -0.039231 -0.007804
v 1.000000 -0.039231 -0.007804
v 0.000000 -0.040000 -0.000000
v 1.000000 -0.040000 -0.000000
v 0.000000 -0.039231 0.007804
v 1.000000 -0.039231 0.007804
v 0.000000 -0.036955 0.015307
v 1.000000 -0.036955 0.015307
v 0.000000 -0.033259 0.022223
v 1.000000 -0.033259 0.022223
v 0.000000 -0.028284 0.028284
v 1.000000 -0.028284 0.028284
v 0.000000 -0.022223 0.033259
v 1.000000 -0.022223 0.033259
v 0.000000 -0.015307 0.036955
v 1.000000 -0.015307 0.036955
v 0.000000 -0.007804 0.039231
v 1.000000 -0.007804 0.039231
v 0.000000 -0.000000 0.040000
v 1.000000 -0.000000 0.040000
v 0.000000 0.007804 0.039231
v 1.000000 0.007804 0.039231
v 0.000000 0.015307 0.036955
v 1.000000 0.015307 0.036955
v 0.000000 0.022223 0.033259
v 1.000000 0.022223 0.033259
v 0.000000 0.028284 0.028284
v 1.000000 0.028284 0.028284
v 0.000000 0.033259 0.022223
v 1.000000 0.033259 0.022223
v 0.000000 0.036955 0.015307
v 1.000000 0.036955 0.015307
v 0.000000 0.039231 0.007804
v 1.000000 0.039231 0.007804
v 0.000000 0.040000 0.000000
v 1.000000 0.040000 0.000000
v 0.000000 0.039231 -0.007804
v 1.000000 0.039231 -0.007804
v 0.000000 0.036955 -0.015307
v 1.000000 0.036955 -0.015307
v 0.000000 0.033259 -0.022223
v 1.000000 0.033259 -0.022223
v 0.000000 0.028284 -0.028284
v 1.000000 0.028284 -0.028284
v 0.000000 0.022223 -0.033259
v 1.000000 0.022223 -0.033259
v 0.000000 0.015307 -0.036955
v 1.000000 0.015307 -0.036955
v 0.000000 0.007804 -0.039231
v 1.000000 0.007804 -0.039231
v 1.000000 0.000000 -0.120000
v 1.250000 0.000000 0.000000
v 1.000000 -0.023411 -0.117694
v 1.000000 -0.045922 -0.110866
v 1.000000 -0.066668 -0.099776
v 1.000000 -0.084853 -0.084853
v 1.000000 -0.099776 -0.066668
v 1.000000 -0.110866 -0.045922
v 1.000000 -0.117694 -0.023411
v 1.000000 -0.120000 -0.000000
v 1.000000 -0.117694 0.023411
v 1.000000 -0.110866 0.045922
v 1.000000 -0.099776 0.066668
v 1.000000 -0.084853 0.084853
v 1.000000 -0.066668 0.099776
v 1.000000 -0.045922 0.110866
v 1.000000 -0.023411 0.117694
v 1.000000 -0.000000 0.120000
v 1.000000 0.023411 0.117694
v 1.000000 0.045922 0.110866
v 1.000000 0.066668 0.099776
v 1.000000 0.084853 0.084853
v 1.000000 0.099776 0.066668
v 1.000000 0.110866 0.045922
v 1.000000 0.117694 0.023411
v 1.000000 0.120000 0.000000
v 1.000000 0.117694 -0.023411
v 1.000000 0.110866 -0.045922
v 1.000000 0.099776 -0.066668
v 1.000000 0.084853 -0.084853
v 1.000000 0.066668 -0.099776
v 1.000000 0.045922 -0.110866
v 1.000000 0.023411 -0.117694
usemtl Translate_X
s off
f 1 2 3
f 4 5 2
f 6 7 5
f 8 9 7
f 10 11 9
f 12 13 11
f 14 15 13
f 16 17 15
f 18 19 17
f 20 21 19
f 22 23 21
f 24 25 23
f 26 27 25
f 28 29 27
f 30 31 29
f 32 33 31
f 34 35 33
f 36 37 35
f 38 39 37
f 40 41 39
f 42 43 41
f 44 45 43
f 46 47 45
f 48 49 47
f 50 51 49
f 52 53 51
f 54 55 53
f 56 57 55
f 58 59 57
f 60 61 59
f 38 22 6
f 62 63 61
f 64 3 63
f 63 15 31
f 65 66 67
f 67 66 68
f 68 66 69
f 69 66 70
f 70 66 71
f 71 66 72
f 72 66 73
f 73 66 74
f 74 66 75
f 75 66 76
f 76 66 77
f 77 66 78
f 78 66 79
f 79 66 80
f 80 66 81
f 81 66 82
f 82 66 83
f 83 66 84
f 84 66 85
f 85 66 86
f 86 66 87
f 87 66 88
f 88 66 89
f 89 66 90
f 90 66 91
f 91 66 92
f 92 66 93
f 93 66 94
f 94 66 95
f 95 66 96
f 93 97 81
f 96 66 97
f 97 66 65
f 1 4 2
f 4 6 5
f 6 8 7
f 8 10 9
f 10 12 11
f 12 14 13
f 14 16 15
f 16 18 17
f 18 20 19
f 20 22 21
f 22 24 23
f 24 26 25
f 26 28 27
f 28 30 29
f 30 32 31
f 32 34 33
f 34 36 35
f 36 38 37
f 38 40 39
f 40 42 41
f 42 44 43
f 44 46 45
f 46 48 47
f 48 50 49
f 50 52 51
f 52 54 53
f 54 56 55
f 56 58 57
f 58 60 59
f 60 62 61
f 6 4 62
f 4 1 62
f 1 64 62
f 62 60 58
f 58 56 54
f 54 52 50
f 50 48 54
f 48 46 54
f 46 44 38
f 44 42 38
f 42 40 38
f 38 36 34
f 34 32 30
f 30 28 26
f 26 24 22
f 22 20 14
f 20 18 14
f 18 16 14
f 14 12 10
f 10 8 6
f 62 58 54
f 38 34 30
f 30 26 22
f 14 10 6
f 6 62 54
f 54 46 6
f 46 38 6
f 38 30 22
f 22 14 6
f 62 64 63
f 64 1 3
f 63 3 2
f 2 5 7
f 7 9 11
f 11 13 7
f 13 15 7
f 15 17 19
f 19 21 23
f 23 25 27
f 27 29 23
f 29 31 23
f 31 33 35
f 35 37 31
f 37 39 31
f 39 41 43
f 43 45 47
f 47 49 51
f 51 53 55
f 55 57 59
f 59 61 55
f 61 63 55
f 63 2 15
f 2 7 15
f 15 19 23
f 39 43 47
f 47 51 63
f 51 55 63
f 15 23 31
f 31 39 63
f 39 47 63
f 97 65 69
f 65 67 69
f 67 68 69
f 69 70 73
f 70 71 73
f 71 72 73
f 73 74 75
f 75 76 77
f 77 78 81
f 78 79 81
f 79 80 81
f 81 82 85
f 82 83 85
f 83 84 85
f 85 86 89
f 86 87 89
f 87 88 89
f 89 90 91
f 91 92 93
f 93 94 97
f 94 95 97
f 95 96 97
f 73 75 77
f 89 91 93
f 97 69 81
f 69 73 81
f 73 77 81
f 81 85 89
f 89 93 81
o Translate_Y_Cylinder.006
v 0.000000 -0.040000 -1.000000
v 0.007804 -0.039231 -0.000000
v 0.000000 -0.040000 -0.000000
v 0.007804 -0.039231 -1.000000
v 0.015307 -0.036955 -0.000000
v 0.015307 -0.036955 -1.000000
v 0.022223 -0.033259 -0.000000
v 0.022223 -0.033259 -1.000000
v 0.028284 -0.028284 -0.000000
v 0.028284 -0.028284 -1.000000
v 0.033259 -0.022223 -0.000000
v 0.033259 -0.022223 -1.000000
v 0.036955 -0.015307 -0.000000
v 0.036955 -0.015307 -1.000000
v 0.039231 -0.007804 -0.000000
v 0.039231 -0.007804 -1.000000
v 0.040000 0.000000 0.000000
v 0.040000 0.000000 -1.000000
v 0.039231 0.007804 0.000000
v 0.039231 0.007804 -1.000000
v 0.036955 0.015307 0.000000
v 0.036955 0.015307 -1.000000
v 0.033259 0.022223 0.000000
v 0.033259 0.022223 -1.000000
v 0.028284 0.028284 0.000000
v 0.028284 0.028284 -1.000000
v 0.022223 0.033259 0.000000
v 0.022223 0.033259 -1.000000
v 0.015307 0.036955 0.000000
v 0.015307 0.036955 -1.000000
v 0.007804 0.039231 0.000000
v 0.007804 0.039231 -1.000000
v 0.000000 0.040000 0.000000
v 0.000000 0.040000 -1.000000
v -0.007804 0.039231 0.000000
v -0.007804 0.039231 -1.000000
v -0.015307 0.036955 0.000000
v -0.015307 0.036955 -1.000000
v -0.022223 0.033259 0.000000
v -0.022223 0.033259 -1.000000
v -0.028284 0.028284 0.000000
v -0.028284 0.028284 -1.000000
v -0.033259 0.022223 0.000000
v -0.033259 0.022223 -1.000000
v -0.036955 0.015307 0.000000
v -0.036955 0.015307 -1.000000
v -0.039231 0.007804 0.000000
v -0.039231 0.007804 -1.000000
v -0.040000 0.000000 0.000000
v -0.040000 0.000000 -1.000000
v -0.039231 -0.007804 -0.000000
v -0.039231 -0.007804 -1.000000
v -0.036955 -0.015307 -0.000000
v -0.036955 -0.015307 -1.000000
v -0.033259 -0.022223 -0.000000
v -0.033259 -0.022223 -1.000000
v -0.028284 -0.028284 -0.000000
v -0.028284 -0.028284 -1.000000
v -0.022223 -0.033259 -0.000000
v -0.022223 -0.033259 -1.000000
v -0.015307 -0.036955 -0.000000
v -0.015307 -0.036955 -1.000000
v -0.007804 -0.039231 -0.000000
v -0.007804 -0.039231 -1.000000
v 0.000000 -0.120000 -1.000000
v 0.000000 0.000000 -1.250000
v 0.023411 -0.117694 -1.000000
v 0.045922 -0.110866 -1.000000
v 0.066668 -0.099776 -1.000000
v 0.084853 -0.084853 -1.000000
v 0.099776 -0.066668 -1.000000
v 0.110866 -0.045922 -1.000000
v 0.117694 -0.023411 -1.000000
v 0.120000 0.000000 -1.000000
v 0.117694 0.023411 -1.000000
v 0.110866 0.045922 -1.000000
v 0.099776 0.066668 -1.000000
v 0.084853 0.084853 -1.000000
v 0.066668 0.099776 -1.000000
v 0.045922 0.110866 -1.000000
v 0.023411 0.117694 -1.000000
v 0.000000 0.120000 -1.000000
v -0.023411 0.117694 -1.000000
v -0.045922 0.110866 -1.000000
v -0.066668 0.099776 -1.000000
v -0.084853 0.084853 -1.000000
v -0.099776 0.066668 -1.000000
v -0.110866 0.045922 -1.000000
v -0.117694 0.023411 -1.000000
v -0.120000 0.000000 -1.000000
v -0.117694 -0.023411 -1.000000
v -0.110866 -0.045922 -1.000000
v -0.099776 -0.066668 -1.000000
v -0.084853 -0.084853 -1.000000
v -0.066668 -0.099776 -1.000000
v -0.045922 -0.110866 -1.000000
v -0.023411 -0.117694 -1.000000
usemtl Translate_Z
s off
f 98 99 100
f 101 102 99
f 103 104 102
f 105 106 104
f 107 108 106
f 109 110 108
f 111 112 110
f 113 114 112
f 115 116 114
f 117 118 116
f 119 120 118
f 121 122 120
f 123 124 122
f 125 126 124
f 127 128 126
f 129 130 128
f 131 132 130
f 133 134 132
f 135 136 134
f 137 138 136
f 139 140 138
f 141 142 140
f 143 144 142
f 145 146 144
f 147 148 146
f 149 150 148
f 151 152 150
f 153 154 152
f 155 156 154
f 157 158 156
f 135 119 103
f 159 160 158
f 161 100 160
f 160 112 128
f 162 163 164
f 164 163 165
f 165 163 166
f 166 163 167
f 167 163 168
f 168 163 169
f 169 163 170
f 170 163 171
f 171 163 172
f 172 163 173
f 173 163 174
f 174 163 175
f 175 163 176
f 176 163 177
f 177 163 178
f 178 163 179
f 179 163 180
f 180 163 181
f 181 163 182
f 182 163 183
f 183 163 184
f 184 163 185
f 185 163 186
f 186 163 187
f 187 163 188
f 188 163 189
f 189 163 190
f 190 163 191
f 191 163 192
f 192 163 193
f 190 194 178
f 193 163 194
f 194 163 162
f 98 101 99
f 101 103 102
f 103 105 104
f 105 107 106
f 107 109 108
f 109 111 110
f 111 113 112
f 113 115 114
f 115 117 116
f 117 119 118
f 119 121 120
f 121 123 122
f 123 125 124
f 125 127 126
f 127 129 128
f 129 131 130
f 131 133 132
f 133 135 134
f 135 137 136
f 137 139 138
f 139 141 140
f 141 143 142
f 143 145 144
f 145 147 146
f 147 149 148
f 149 151 150
f 151 153 152
f 153 155 154
f 155 157 156
f 157 159 158
f 103 101 159
f 101 98 159
f 98 161 159
f 159 157 155
f 155 153 151
f 151 149 147
f 147 145 151
f 145 143 151
f 143 141 135
f 141 139 135
f 139 137 135
f 135 133 131
f 131 129 127
f 127 125 123
f 123 121 119
f 119 117 111
f 117 115 111
f 115 113 111
f 111 109 107
f 107 105 103
f 159 155 151
f 135 131 127
f 127 123 119
f 111 107 103
f 103 159 151
f 151 143 103
f 143 135 103
f 135 127 119
f 119 111 103
f 159 161 160
f 161 98 100
f 160 100 99
f 99 102 104
f 104 106 108
f 108 110 104
f 110 112 104
f 112 114 116
f 116 118 120
f 120 122 124
f 124 126 120
f 126 128 120
f 128 130 132
f 132 134 128
f 134 136 128
f 136 138 140
f 140 142 144
f 144 146 148
f 148 150 152
f 152 154 156
f 156 158 152
f 158 160 152
f 160 99 112
f 99 104 112
f 112 116 120
f 136 140 144
f 144 148 160
f 148 152 160
f 112 120 128
f 128 136 160
f 136 144 160
f 194 162 166
f 162 164 166
f 164 165 166
f 166 167 170
f 167 168 170
f 168 169 170
f 170 171 172
f 172 173 174
f 174 175 178
f 175 176 178
f 176 177 178
f 178 179 182
f 179 180 182
f 180 181 182
f 182 183 186
f 183 184 186
f 184 185 186
f 186 187 188
f 188 189 190
f 190 191 194
f 191 192 194
f 192 193 194
f 170 172 174
f 186 188 190
f 194 166 178
f 166 170 178
f 170 174 178
f 178 182 186
f 186 190 178
o Translate_Z_Cylinder.007
v 0.000000 1.000000 -0.040000
v 0.007804 0.000000 -0.039231
v 0.000000 0.000000 -0.040000
v 0.007804 1.000000 -0.039231
v 0.015307 0.000000 -0.036955
v 0.015307 1.000000 -0.036955
v 0.022223 0.000000 -0.033259
v 0.022223 1.000000 -0.033259
v 0.028284 0.000000 -0.028284
v 0.028284 1.000000 -0.028284
v 0.033259 0.000000 -0.022223
v 0.033259 1.000000 -0.022223
v 0.036955 0.000000 -0.015307
v 0.036955 1.000000 -0.015307
v 0.039231 0.000000 -0.007804
v 0.039231 1.000000 -0.007804
v 0.040000 0.000000 0.000000
v 0.040000 1.000000 0.000000
v 0.039231 -0.000000 0.007804
v 0.039231 1.000000 0.007804
v 0.036955 -0.000000 0.015307
v 0.036955 1.000000 0.015307
v 0.033259 -0.000000 0.022223
v 0.033259 1.000000 0.022223
v 0.028284 -0.000000 0.028284
v 0.028284 1.000000 0.028284
v 0.022223 -0.000000 0.033259
v 0.022223 1.000000 0.033259
v 0.015307 -0.000000 0.036955
v 0.015307 1.000000 0.036955
v 0.007804 -0.000000 0.039231
v 0.007804 1.000000 0.039231
v 0.000000 -0.000000 0.040000
v 0.000000 1.000000 0.040000
v -0.007804 -0.000000 0.039231
v -0.007804 1.000000 0.039231
v -0.015307 -0.000000 0.036955
v -0.015307 1.000000 0.036955
v -0.022223 -0.000000 0.033259
v -0.022223 1.000000 0.033259
v -0.028284 -0.000000 0.028284
v -0.028284 1.000000 0.028284
v -0.033259 -0.000000 0.022223
v -0.033259 1.000000 0.022223
v -0.036955 -0.000000 0.015307
v -0.036955 1.000000 0.015307
v -0.039231 -0.000000 0.007804
v -0.039231 1.000000 0.007804
v -0.040000 0.000000 0.000000
v -0.040000 1.000000 0.000000
v -0.039231 0.000000 -0.007804
v -0.039231 1.000000 -0.007804
v -0.036955 0.000000 -0.015307
v -0.036955 1.000000 -0.015307
v -0.033259 0.000000 -0.022223
v -0.033259 1.000000 -0.022223
v -0.028284 0.000000 -0.028284
v -0.028284 1.000000 -0.028284
v -0.022223 0.000000 -0.033259
v -0.022223 1.000000 -0.033259
v -0.015307 0.000000 -0.036955
v -0.015307 1.000000 -0.036955
v -0.007804 0.000000 -0.039231
v -0.007804 1.000000 -0.039231
v 0.000000 1.000000 -0.120000
v 0.000000 1.250000 0.000000
v 0.023411 1.000000 -0.117694
v 0.045922 1.000000 -0.110866
v 0.066668 1.000000 -0.099776
v 0.084853 1.000000 -0.084853
v 0.099776 1.000000 -0.066668
v 0.110866 1.000000 -0.045922
v 0.117694 1.000000 -0.023411
v 0.120000 1.000000 0.000000
v 0.117694 1.000000 0.023411
v 0.110866 1.000000 0.045922
v 0.099776 1.000000 0.066668
v 0.084853 1.000000 0.084853
v 0.066668 1.000000 0.099776
v 0.045922 1.000000 0.110866
v 0.023411 1.000000 0.117694
v 0.000000 1.000000 0.120000
v -0.023411 1.000000 0.117694
v -0.045922 1.000000 0.110866
v -0.066668 1.000000 0.099776
v -0.084853 1.000000 0.084853
v -0.099776 1.000000 0.066668
v -0.110866 1.000000 0.045922
v -0.117694 1.000000 0.023411
v -0.120000 1.000000 0.000000
v -0.117694 1.000000 -0.023411
v -0.110866 1.000000 -0.045922
v -0.099776 1.000000 -0.066668
v -0.084853 1.000000 -0.084853
v -0.066668 1.000000 -0.099776
v -0.045922 1.000000 -0.110866
v -0.023411 1.000000 -0.117694
usemtl Translate_Y
s off
f 195 196 197
f 198 199 196
f 200 201 199
f 202 203 201
f 204 205 203
f 206 207 205
f 208 209 207
f 210 211 209
f 212 213 211
f 214 215 213
f 216 217 215
f 218 219 217
f 220 221 219
f 222 223 221
f 224 225 223
f 226 227 225
f 228 229 227
f 230 231 229
f 232 233 231
f 234 235 233
f 236 237 235
f 238 239 237
f 240 241 239
f 242 243 241
f 244 245 243
f 246 247 245
f 248 249 247
f 250 251 249
f 252 253 251
f 254 255 253
f 232 216 200
f 256 257 255
f 258 197 257
f 257 209 225
f 259 260 261
f 261 260 262
f 262 260 263
f 263 260 264
f 264 260 265
f 265 260 266
f 266 260 267
f 267 260 268
f 268 260 269
f 269 260 270
f 270 260 271
f 271 260 272
f 272 260 273
f 273 260 274
f 274 260 275
f 275 260 276
f 276 260 277
f 277 260 278
f 278 260 279
f 279 260 280
f 280 260 281
f 281 260 282
f 282 260 283
f 283 260 284
f 284 260 285
f 285 260 286
f 286 260 287
f 287 260 288
f 288 260 289
f 289 260 290
f 287 291 275
f 290 260 291
f 291 260 259
f 195 198 196
f 198 200 199
f 200 202 201
f 202 204 203
f 204 206 205
f 206 208 207
f 208 210 209
f 210 212 211
f 212 214 213
f 214 216 215
f 216 218 217
f 218 220 219
f 220 222 221
f 222 224 223
f 224 226 225
f 226 228 227
f 228 230 229
f 230 232 231
f 232 234 233
f 234 236 235
f 236 238 237
f 238 240 239
f 240 242 241
f 242 244 243
f 244 246 245
f 246 248 247
f 248 250 249
f 250 252 251
f 252 254 253
f 254 256 255
f 200 198 256
f 198 195 256
f 195 258 256
f 256 254 252
f 252 250 248
f 248 246 244
f 244 242 248
f 242 240 248
f 240 238 232
f 238 236 232
f 236 234 232
f 232 230 228
f 228 226 224
f 224 222 220
f 220 218 216
f 216 214 208
f 214 212 208
f 212 210 208
f 208 206 204
f 204 202 200
f 256 252 248
f 232 228 224
f 224 220 216
f 208 204 200
f 200 256 248
f 248 240 200
f 240 232 200
f 232 224 216
f 216 208 200
f 256 258 257
f 258 195 197
f 257 197 196
f 196 199 201
f 201 203 205
f 205 207 201
f 207 209 201
f 209 211 213
f 213 215 217
f 217 219 221
f 221 223 217
f 223 225 217
f 225 227 229
f 229 231 225
f 231 233 225
f 233 235 237
f 237 239 241
f 241 243 245
f 245 247 249
f 249 251 253
f 253 255 249
f 255 257 249
f 257 196 209
f 196 201 209
f 209 213 217
f 233 237 241
f 241 245 257
f 245 249 257
f 209 217 225
f 225 233 257
f 233 241 257
f 291 259 263
f 259 261 263
f 261 262 263
f 263 264 267
f 264 265 267
f 265 266 267
f 267 268 269
f 269 270 271
f 271 272 275
f 272 273 275
f 273 274 275
f 275 276 279
f 276 277 279
f 277 278 279
f 279 280 283
f 280 281 283
f 281 282 283
f 283 284 285
f 285 286 287
f 287 288 291
f 288 289 291
f 289 290 291
f 267 269 271
f 283 285 287
f 291 263 275
f 263 267 275
f 267 271 275
f 275 279 283
f 283 287 275
o Translate_Centroid_Cube.001
v -0.050000 -0.050000 0.050000
v -0.050000 0.050000 0.050000
v -0.050000 -0.050000 -0.050000
v -0.050000 0.050000 -0.050000
v 0.050000 -0.050000 0.050000
v 0.050000 0.050000 0.050000
v 0.050000 -0.050000 -0.050000
v 0.050000 0.050000 -0.050000
usemtl Translate_Centroid
s off
f 293 294 292
f 295 298 294
f 299 296 298
f 297 292 296
f 298 292 294
f 295 297 299
f 293 295 294
f 295 299 298
f 299 297 296
f 297 293 292
f 298 296 292
f 295 293 297
